<?xml version="1.0" encoding="UTF-8" standalone="no"?>
<!DOCTYPE svg PUBLIC "-//W3C//DTD SVG 1.1//EN"
 "http://www.w3.org/Graphics/SVG/1.1/DTD/svg11.dtd">
<!-- Generated by graphviz version 2.26.3 (20100126.1600)
 -->
<!-- Title: src/analysis/utils/A2GeoAcceptance.h Pages: 1 -->
<svg width="564pt" height="188pt"
 viewBox="0.00 0.00 564.00 188.00" xmlns="http://www.w3.org/2000/svg" xmlns:xlink="http://www.w3.org/1999/xlink">
<g id="graph1" class="graph" transform="scale(1 1) rotate(0) translate(4 184)">
<title>src/analysis/utils/A2GeoAcceptance.h</title>
<polygon fill="white" stroke="white" points="-4,5 -4,-184 561,-184 561,5 -4,5"/>
<!-- Node1 -->
<g id="node1" class="node"><title>Node1</title>
<polygon fill="#bfbfbf" stroke="black" points="244,-145 244,-179 354,-179 354,-145 244,-145"/>
<text text-anchor="start" x="252" y="-166" font-family="Helvetica,sans-Serif" font-size="10.00">src/analysis/utils</text>
<text text-anchor="middle" x="299" y="-153" font-family="Helvetica,sans-Serif" font-size="10.00">/A2GeoAcceptance.h</text>
</g>
<!-- Node2 -->
<g id="node3" class="node"><title>Node2</title>
<a xlink:href="_geo_acceptance_8h.html" target="_top" xlink:title="src/analysis/physics\l/omega/GeoAcceptance.h">
<polygon fill="white" stroke="black" points="4,-73 4,-107 134,-107 134,-73 4,-73"/>
<text text-anchor="start" x="12" y="-94" font-family="Helvetica,sans-Serif" font-size="10.00">src/analysis/physics</text>
<text text-anchor="middle" x="69" y="-81" font-family="Helvetica,sans-Serif" font-size="10.00">/omega/GeoAcceptance.h</text>
</a>
</g>
<!-- Node1&#45;&gt;Node2 -->
<g id="edge2" class="edge"><title>Node1&#45;&gt;Node2</title>
<path fill="none" stroke="midnightblue" d="M234.837,-141.914C199.811,-130.949 156.907,-117.519 123.514,-107.065"/>
<polygon fill="midnightblue" stroke="midnightblue" points="233.904,-145.29 244.493,-144.937 235.996,-138.609 233.904,-145.29"/>
</g>
<!-- Node4 -->
<g id="node7" class="node"><title>Node4</title>
<a xlink:href="mctrue__acceptance_8h.html" target="_top" xlink:title="src/analysis/physics\l/omega/mctrue_acceptance.h">
<polygon fill="white" stroke="black" points="154,-73 154,-107 300,-107 300,-73 154,-73"/>
<text text-anchor="start" x="162" y="-94" font-family="Helvetica,sans-Serif" font-size="10.00">src/analysis/physics</text>
<text text-anchor="middle" x="227" y="-81" font-family="Helvetica,sans-Serif" font-size="10.00">/omega/mctrue_acceptance.h</text>
</a>
</g>
<!-- Node1&#45;&gt;Node4 -->
<g id="edge6" class="edge"><title>Node1&#45;&gt;Node4</title>
<path fill="none" stroke="midnightblue" d="M274.671,-137.671C264.755,-127.755 253.515,-116.515 244.441,-107.441"/>
<polygon fill="midnightblue" stroke="midnightblue" points="272.391,-140.341 281.937,-144.937 277.341,-135.391 272.391,-140.341"/>
</g>
<!-- Node6 -->
<g id="node11" class="node"><title>Node6</title>
<a xlink:href="omega_8h.html" target="_top" xlink:title="src/analysis/physics\l/omega/omega.h">
<polygon fill="white" stroke="black" points="318,-73 318,-107 424,-107 424,-73 318,-73"/>
<text text-anchor="start" x="326" y="-94" font-family="Helvetica,sans-Serif" font-size="10.00">src/analysis/physics</text>
<text text-anchor="middle" x="371" y="-81" font-family="Helvetica,sans-Serif" font-size="10.00">/omega/omega.h</text>
</a>
</g>
<!-- Node1&#45;&gt;Node6 -->
<g id="edge10" class="edge"><title>Node1&#45;&gt;Node6</title>
<path fill="none" stroke="midnightblue" d="M323.329,-137.671C333.245,-127.755 344.485,-116.515 353.559,-107.441"/>
<polygon fill="midnightblue" stroke="midnightblue" points="320.659,-135.391 316.063,-144.937 325.609,-140.341 320.659,-135.391"/>
</g>
<!-- Node8 -->
<g id="node15" class="node"><title>Node8</title>
<a xlink:href="_a2_geo_acceptance_8cc.html" target="_top" xlink:title="src/analysis/utils\l/A2GeoAcceptance.cc">
<polygon fill="white" stroke="black" points="441.5,-73 441.5,-107 556.5,-107 556.5,-73 441.5,-73"/>
<text text-anchor="start" x="449.5" y="-94" font-family="Helvetica,sans-Serif" font-size="10.00">src/analysis/utils</text>
<text text-anchor="middle" x="499" y="-81" font-family="Helvetica,sans-Serif" font-size="10.00">/A2GeoAcceptance.cc</text>
</a>
</g>
<!-- Node1&#45;&gt;Node8 -->
<g id="edge14" class="edge"><title>Node1&#45;&gt;Node8</title>
<path fill="none" stroke="midnightblue" d="M355.968,-141.491C386.207,-130.606 422.932,-117.385 451.597,-107.065"/>
<polygon fill="midnightblue" stroke="midnightblue" points="354.621,-138.257 346.397,-144.937 356.992,-144.843 354.621,-138.257"/>
</g>
<!-- Node3 -->
<g id="node5" class="node"><title>Node3</title>
<a xlink:href="_geo_acceptance_8cc.html" target="_top" xlink:title="src/analysis/physics\l/omega/GeoAcceptance.cc">
<polygon fill="white" stroke="black" points="-0.5,-1 -0.5,-35 134.5,-35 134.5,-1 -0.5,-1"/>
<text text-anchor="start" x="7.5" y="-22" font-family="Helvetica,sans-Serif" font-size="10.00">src/analysis/physics</text>
<text text-anchor="middle" x="67" y="-9" font-family="Helvetica,sans-Serif" font-size="10.00">/omega/GeoAcceptance.cc</text>
</a>
</g>
<!-- Node2&#45;&gt;Node3 -->
<g id="edge4" class="edge"><title>Node2&#45;&gt;Node3</title>
<path fill="none" stroke="midnightblue" d="M68.2422,-62.7193C67.9881,-53.572 67.7118,-43.6255 67.4845,-35.4407"/>
<polygon fill="midnightblue" stroke="midnightblue" points="64.7496,-63.0381 68.526,-72.937 71.7469,-62.8436 64.7496,-63.0381"/>
</g>
<!-- Node5 -->
<g id="node9" class="node"><title>Node5</title>
<a xlink:href="mctrue__acceptance_8cc.html" target="_top" xlink:title="src/analysis/physics\l/omega/mctrue_acceptance.cc">
<polygon fill="white" stroke="black" points="151.5,-1 151.5,-35 302.5,-35 302.5,-1 151.5,-1"/>
<text text-anchor="start" x="159.5" y="-22" font-family="Helvetica,sans-Serif" font-size="10.00">src/analysis/physics</text>
<text text-anchor="middle" x="227" y="-9" font-family="Helvetica,sans-Serif" font-size="10.00">/omega/mctrue_acceptance.cc</text>
</a>
</g>
<!-- Node4&#45;&gt;Node5 -->
<g id="edge8" class="edge"><title>Node4&#45;&gt;Node5</title>
<path fill="none" stroke="midnightblue" d="M227,-62.7193C227,-53.572 227,-43.6255 227,-35.4407"/>
<polygon fill="midnightblue" stroke="midnightblue" points="223.5,-62.937 227,-72.937 230.5,-62.937 223.5,-62.937"/>
</g>
<!-- Node7 -->
<g id="node13" class="node"><title>Node7</title>
<a xlink:href="omega_8cc.html" target="_top" xlink:title="src/analysis/physics\l/omega/omega.cc">
<polygon fill="white" stroke="black" points="320,-1 320,-35 426,-35 426,-1 320,-1"/>
<text text-anchor="start" x="328" y="-22" font-family="Helvetica,sans-Serif" font-size="10.00">src/analysis/physics</text>
<text text-anchor="middle" x="373" y="-9" font-family="Helvetica,sans-Serif" font-size="10.00">/omega/omega.cc</text>
</a>
</g>
<!-- Node6&#45;&gt;Node7 -->
<g id="edge12" class="edge"><title>Node6&#45;&gt;Node7</title>
<path fill="none" stroke="midnightblue" d="M371.758,-62.7193C372.012,-53.572 372.288,-43.6255 372.516,-35.4407"/>
<polygon fill="midnightblue" stroke="midnightblue" points="368.253,-62.8436 371.474,-72.937 375.25,-63.0381 368.253,-62.8436"/>
</g>
</g>
</svg>
