<?xml version="1.0" encoding="UTF-8" standalone="no"?>
<!DOCTYPE svg PUBLIC "-//W3C//DTD SVG 1.1//EN"
 "http://www.w3.org/Graphics/SVG/1.1/DTD/svg11.dtd">
<!-- Generated by graphviz version 2.26.3 (20100126.1600)
 -->
<!-- Title: src/rint/TCalibrationEditor.cc Pages: 1 -->
<svg width="1258pt" height="508pt"
 viewBox="0.00 0.00 1257.86 508.00" xmlns="http://www.w3.org/2000/svg" xmlns:xlink="http://www.w3.org/1999/xlink">
<g id="graph1" class="graph" transform="scale(1 1) rotate(0) translate(4 504)">
<title>src/rint/TCalibrationEditor.cc</title>
<polygon fill="white" stroke="white" points="-4,5 -4,-504 1254.86,-504 1254.86,5 -4,5"/>
<!-- Node1 -->
<g id="node1" class="node"><title>Node1</title>
<polygon fill="#bfbfbf" stroke="black" points="664.5,-478.5 664.5,-499.5 805.5,-499.5 805.5,-478.5 664.5,-478.5"/>
<text text-anchor="middle" x="735" y="-486.5" font-family="Helvetica,sans-Serif" font-size="10.00">src/rint/TCalibrationEditor.cc</text>
</g>
<!-- Node2 -->
<g id="node3" class="node"><title>Node2</title>
<a xlink:href="_t_calibration_editor_8h.html" target="_top" xlink:title="TCalibrationEditor.h">
<polygon fill="white" stroke="black" points="106.5,-297.5 106.5,-318.5 209.5,-318.5 209.5,-297.5 106.5,-297.5"/>
<text text-anchor="middle" x="158" y="-305.5" font-family="Helvetica,sans-Serif" font-size="10.00">TCalibrationEditor.h</text>
</a>
</g>
<!-- Node1&#45;&gt;Node2 -->
<g id="edge2" class="edge"><title>Node1&#45;&gt;Node2</title>
<path fill="none" stroke="midnightblue" d="M701.484,-478.486C602.591,-447.464 312.04,-356.321 201.43,-321.624"/>
<polygon fill="midnightblue" stroke="midnightblue" points="202.198,-318.196 191.608,-318.543 200.102,-324.875 202.198,-318.196"/>
</g>
<!-- Node25 -->
<g id="node55" class="node"><title>Node25</title>
<a xlink:href="_editor_8h.html" target="_top" xlink:title="calibration/Editor.h">
<polygon fill="white" stroke="black" points="686,-420.5 686,-441.5 784,-441.5 784,-420.5 686,-420.5"/>
<text text-anchor="middle" x="735" y="-428.5" font-family="Helvetica,sans-Serif" font-size="10.00">calibration/Editor.h</text>
</a>
</g>
<!-- Node1&#45;&gt;Node25 -->
<g id="edge60" class="edge"><title>Node1&#45;&gt;Node25</title>
<path fill="none" stroke="midnightblue" d="M735,-478.362C735,-470.922 735,-460.743 735,-451.728"/>
<polygon fill="midnightblue" stroke="midnightblue" points="738.5,-451.571 735,-441.571 731.5,-451.571 738.5,-451.571"/>
</g>
<!-- Node35 -->
<g id="node99" class="node"><title>Node35</title>
<polygon fill="white" stroke="#bfbfbf" points="802,-420.5 802,-441.5 856,-441.5 856,-420.5 802,-420.5"/>
<text text-anchor="middle" x="829" y="-428.5" font-family="Helvetica,sans-Serif" font-size="10.00">iostream</text>
</g>
<!-- Node1&#45;&gt;Node35 -->
<g id="edge128" class="edge"><title>Node1&#45;&gt;Node35</title>
<path fill="none" stroke="midnightblue" d="M752.241,-478.362C766.552,-469.532 787.115,-456.844 803.357,-446.822"/>
<polygon fill="midnightblue" stroke="midnightblue" points="805.196,-449.8 811.868,-441.571 801.52,-443.843 805.196,-449.8"/>
</g>
<!-- Node3 -->
<g id="node5" class="node"><title>Node3</title>
<polygon fill="white" stroke="#bfbfbf" points="713.5,-0.5 713.5,-21.5 754.5,-21.5 754.5,-0.5 713.5,-0.5"/>
<text text-anchor="middle" x="734" y="-8.5" font-family="Helvetica,sans-Serif" font-size="10.00">string</text>
</g>
<!-- Node2&#45;&gt;Node3 -->
<g id="edge4" class="edge"><title>Node2&#45;&gt;Node3</title>
<path fill="none" stroke="midnightblue" d="M151.985,-297.457C135.778,-267.56 94.3584,-180.242 124,-116 140.642,-79.9318 155.357,-73.335 192,-58 285.417,-18.9052 602.626,-12.328 703.165,-11.2228"/>
<polygon fill="midnightblue" stroke="midnightblue" points="703.307,-14.7217 713.271,-11.1225 703.237,-7.72206 703.307,-14.7217"/>
</g>
<!-- Node4 -->
<g id="node7" class="node"><title>Node4</title>
<polygon fill="white" stroke="#bfbfbf" points="261.5,-232.5 261.5,-253.5 296.5,-253.5 296.5,-232.5 261.5,-232.5"/>
<text text-anchor="middle" x="279" y="-240.5" font-family="Helvetica,sans-Serif" font-size="10.00">map</text>
</g>
<!-- Node2&#45;&gt;Node4 -->
<g id="edge6" class="edge"><title>Node2&#45;&gt;Node4</title>
<path fill="none" stroke="midnightblue" d="M177.71,-297.412C197.984,-286.521 229.697,-269.485 252.233,-257.379"/>
<polygon fill="midnightblue" stroke="midnightblue" points="254.116,-260.341 261.269,-252.525 250.803,-254.174 254.116,-260.341"/>
</g>
<!-- Node5 -->
<g id="node9" class="node"><title>Node5</title>
<polygon fill="white" stroke="#bfbfbf" points="185.5,-232.5 185.5,-253.5 244.5,-253.5 244.5,-232.5 185.5,-232.5"/>
<text text-anchor="middle" x="215" y="-240.5" font-family="Helvetica,sans-Serif" font-size="10.00">functional</text>
</g>
<!-- Node2&#45;&gt;Node5 -->
<g id="edge8" class="edge"><title>Node2&#45;&gt;Node5</title>
<path fill="none" stroke="midnightblue" d="M167.412,-297.267C175.962,-287.517 188.752,-272.932 198.92,-261.336"/>
<polygon fill="midnightblue" stroke="midnightblue" points="201.801,-263.36 205.763,-253.534 196.538,-258.745 201.801,-263.36"/>
</g>
<!-- Node6 -->
<g id="node11" class="node"><title>Node6</title>
<polygon fill="white" stroke="#bfbfbf" points="148,-116.5 148,-137.5 204,-137.5 204,-116.5 148,-116.5"/>
<text text-anchor="middle" x="176" y="-124.5" font-family="Helvetica,sans-Serif" font-size="10.00">Rtypes.h</text>
</g>
<!-- Node2&#45;&gt;Node6 -->
<g id="edge10" class="edge"><title>Node2&#45;&gt;Node6</title>
<path fill="none" stroke="midnightblue" d="M159.046,-297.486C161.941,-268.37 170.104,-186.292 173.948,-147.63"/>
<polygon fill="midnightblue" stroke="midnightblue" points="177.445,-147.84 174.952,-137.543 170.479,-147.147 177.445,-147.84"/>
</g>
<!-- Node7 -->
<g id="node13" class="node"><title>Node7</title>
<a xlink:href="_t_calibration_data_8h.html" target="_top" xlink:title="tree/TCalibrationData.h">
<polygon fill="white" stroke="black" points="580,-232.5 580,-253.5 698,-253.5 698,-232.5 580,-232.5"/>
<text text-anchor="middle" x="639" y="-240.5" font-family="Helvetica,sans-Serif" font-size="10.00">tree/TCalibrationData.h</text>
</a>
</g>
<!-- Node2&#45;&gt;Node7 -->
<g id="edge12" class="edge"><title>Node2&#45;&gt;Node7</title>
<path fill="none" stroke="midnightblue" d="M209.932,-300.982C296.976,-289.219 472.335,-265.522 569.763,-252.356"/>
<polygon fill="midnightblue" stroke="midnightblue" points="570.365,-255.807 579.806,-250.999 569.428,-248.87 570.365,-255.807"/>
</g>
<!-- Node24 -->
<g id="node53" class="node"><title>Node24</title>
<polygon fill="white" stroke="#bfbfbf" points="27.5,-232.5 27.5,-253.5 92.5,-253.5 92.5,-232.5 27.5,-232.5"/>
<text text-anchor="middle" x="60" y="-240.5" font-family="Helvetica,sans-Serif" font-size="10.00">TCanvas.h</text>
</g>
<!-- Node2&#45;&gt;Node24 -->
<g id="edge58" class="edge"><title>Node2&#45;&gt;Node24</title>
<path fill="none" stroke="midnightblue" d="M141.817,-297.267C126.262,-286.949 102.541,-271.216 84.6388,-259.342"/>
<polygon fill="midnightblue" stroke="midnightblue" points="86.1498,-256.144 75.8816,-253.534 82.2806,-261.978 86.1498,-256.144"/>
</g>
<!-- Node7&#45;&gt;Node3 -->
<g id="edge50" class="edge"><title>Node7&#45;&gt;Node3</title>
<path fill="none" stroke="midnightblue" d="M647.639,-232.449C665.722,-210.158 706.581,-158.626 715,-138 729.457,-102.579 733.07,-57.5787 733.88,-31.7581"/>
<polygon fill="midnightblue" stroke="midnightblue" points="737.382,-31.7162 734.082,-21.6483 730.383,-31.5764 737.382,-31.7162"/>
</g>
<!-- Node8 -->
<g id="node15" class="node"><title>Node8</title>
<a xlink:href="_t_i_d_8h.html" target="_top" xlink:title="TID.h">
<polygon fill="white" stroke="black" points="424.5,-174.5 424.5,-195.5 465.5,-195.5 465.5,-174.5 424.5,-174.5"/>
<text text-anchor="middle" x="445" y="-182.5" font-family="Helvetica,sans-Serif" font-size="10.00">TID.h</text>
</a>
</g>
<!-- Node7&#45;&gt;Node8 -->
<g id="edge14" class="edge"><title>Node7&#45;&gt;Node8</title>
<path fill="none" stroke="midnightblue" d="M603.868,-232.497C567.097,-221.503 509.969,-204.424 475.171,-194.02"/>
<polygon fill="midnightblue" stroke="midnightblue" points="476.143,-190.658 465.559,-191.147 474.138,-197.364 476.143,-190.658"/>
</g>
<!-- Node17 -->
<g id="node35" class="node"><title>Node17</title>
<polygon fill="white" stroke="#bfbfbf" points="436.5,-58.5 436.5,-79.5 477.5,-79.5 477.5,-58.5 436.5,-58.5"/>
<text text-anchor="middle" x="457" y="-66.5" font-family="Helvetica,sans-Serif" font-size="10.00">ctime</text>
</g>
<!-- Node7&#45;&gt;Node17 -->
<g id="edge52" class="edge"><title>Node7&#45;&gt;Node17</title>
<path fill="none" stroke="midnightblue" d="M634.618,-232.387C624.338,-208.63 596.517,-150.549 557,-116 536.678,-98.2331 508.483,-85.7977 487.211,-78.2006"/>
<polygon fill="midnightblue" stroke="midnightblue" points="488.278,-74.8667 477.683,-74.9533 486.019,-81.4924 488.278,-74.8667"/>
</g>
<!-- Node23 -->
<g id="node50" class="node"><title>Node23</title>
<a xlink:href="_git_info_8h.html" target="_top" xlink:title="base/GitInfo.h">
<polygon fill="white" stroke="black" points="704,-174.5 704,-195.5 782,-195.5 782,-174.5 704,-174.5"/>
<text text-anchor="middle" x="743" y="-182.5" font-family="Helvetica,sans-Serif" font-size="10.00">base/GitInfo.h</text>
</a>
</g>
<!-- Node7&#45;&gt;Node23 -->
<g id="edge54" class="edge"><title>Node7&#45;&gt;Node23</title>
<path fill="none" stroke="midnightblue" d="M658.075,-232.362C674.055,-223.45 697.081,-210.609 715.127,-200.545"/>
<polygon fill="midnightblue" stroke="midnightblue" points="717.017,-203.498 724.046,-195.571 713.607,-197.385 717.017,-203.498"/>
</g>
<!-- Node8&#45;&gt;Node6 -->
<g id="edge16" class="edge"><title>Node8&#45;&gt;Node6</title>
<path fill="none" stroke="midnightblue" d="M424.339,-180.545C379.308,-170.836 271.744,-147.644 214.068,-135.208"/>
<polygon fill="midnightblue" stroke="midnightblue" points="214.757,-131.776 204.244,-133.09 213.281,-138.619 214.757,-131.776"/>
</g>
<!-- Node9 -->
<g id="node18" class="node"><title>Node9</title>
<a xlink:href="printable_8h.html" target="_top" xlink:title="base/printable.h">
<polygon fill="white" stroke="black" points="838,-116.5 838,-137.5 924,-137.5 924,-116.5 838,-116.5"/>
<text text-anchor="middle" x="881" y="-124.5" font-family="Helvetica,sans-Serif" font-size="10.00">base/printable.h</text>
</a>
</g>
<!-- Node8&#45;&gt;Node9 -->
<g id="edge18" class="edge"><title>Node8&#45;&gt;Node9</title>
<path fill="none" stroke="midnightblue" d="M465.736,-182.242C530.559,-173.618 730.813,-146.979 827.576,-134.107"/>
<polygon fill="midnightblue" stroke="midnightblue" points="828.279,-137.544 837.73,-132.756 827.356,-130.605 828.279,-137.544"/>
</g>
<!-- Node12 -->
<g id="node24" class="node"><title>Node12</title>
<a xlink:href="time_8h.html" target="_top" xlink:title="base/std_ext/time.h">
<polygon fill="white" stroke="black" points="603.5,-116.5 603.5,-137.5 706.5,-137.5 706.5,-116.5 603.5,-116.5"/>
<text text-anchor="middle" x="655" y="-124.5" font-family="Helvetica,sans-Serif" font-size="10.00">base/std_ext/time.h</text>
</a>
</g>
<!-- Node8&#45;&gt;Node12 -->
<g id="edge24" class="edge"><title>Node8&#45;&gt;Node12</title>
<path fill="none" stroke="midnightblue" d="M465.518,-179.333C498.045,-170.35 562.324,-152.596 606.94,-140.274"/>
<polygon fill="midnightblue" stroke="midnightblue" points="607.996,-143.613 616.703,-137.577 606.132,-136.866 607.996,-143.613"/>
</g>
<!-- Node8&#45;&gt;Node17 -->
<g id="edge48" class="edge"><title>Node8&#45;&gt;Node17</title>
<path fill="none" stroke="midnightblue" d="M424.262,-179.101C392.573,-168.974 337.696,-146.403 357,-116 372.137,-92.1594 402.934,-80.1958 426.374,-74.3331"/>
<polygon fill="midnightblue" stroke="midnightblue" points="427.238,-77.7264 436.223,-72.1124 425.698,-70.8978 427.238,-77.7264"/>
</g>
<!-- Node18 -->
<g id="node37" class="node"><title>Node18</title>
<polygon fill="white" stroke="#bfbfbf" points="486,-116.5 486,-137.5 548,-137.5 548,-116.5 486,-116.5"/>
<text text-anchor="middle" x="517" y="-124.5" font-family="Helvetica,sans-Serif" font-size="10.00">type_traits</text>
</g>
<!-- Node8&#45;&gt;Node18 -->
<g id="edge38" class="edge"><title>Node8&#45;&gt;Node18</title>
<path fill="none" stroke="midnightblue" d="M458.206,-174.362C468.761,-165.859 483.758,-153.779 495.963,-143.947"/>
<polygon fill="midnightblue" stroke="midnightblue" points="498.286,-146.57 503.878,-137.571 493.895,-141.118 498.286,-146.57"/>
</g>
<!-- Node19 -->
<g id="node39" class="node"><title>Node19</title>
<polygon fill="white" stroke="#bfbfbf" points="366,-116.5 366,-137.5 404,-137.5 404,-116.5 366,-116.5"/>
<text text-anchor="middle" x="385" y="-124.5" font-family="Helvetica,sans-Serif" font-size="10.00">tuple</text>
</g>
<!-- Node8&#45;&gt;Node19 -->
<g id="edge40" class="edge"><title>Node8&#45;&gt;Node19</title>
<path fill="none" stroke="midnightblue" d="M433.995,-174.362C425.453,-166.104 413.42,-154.472 403.417,-144.803"/>
<polygon fill="midnightblue" stroke="midnightblue" points="405.558,-142.004 395.935,-137.571 400.692,-147.037 405.558,-142.004"/>
</g>
<!-- Node20 -->
<g id="node41" class="node"><title>Node20</title>
<polygon fill="white" stroke="#bfbfbf" points="422,-116.5 422,-137.5 468,-137.5 468,-116.5 422,-116.5"/>
<text text-anchor="middle" x="445" y="-124.5" font-family="Helvetica,sans-Serif" font-size="10.00">cstdint</text>
</g>
<!-- Node8&#45;&gt;Node20 -->
<g id="edge42" class="edge"><title>Node8&#45;&gt;Node20</title>
<path fill="none" stroke="midnightblue" d="M445,-174.362C445,-166.922 445,-156.743 445,-147.728"/>
<polygon fill="midnightblue" stroke="midnightblue" points="448.5,-147.571 445,-137.571 441.5,-147.571 448.5,-147.571"/>
</g>
<!-- Node21 -->
<g id="node43" class="node"><title>Node21</title>
<polygon fill="white" stroke="#bfbfbf" points="1017.5,-116.5 1017.5,-137.5 1076.5,-137.5 1076.5,-116.5 1017.5,-116.5"/>
<text text-anchor="middle" x="1047" y="-124.5" font-family="Helvetica,sans-Serif" font-size="10.00">stdexcept</text>
</g>
<!-- Node8&#45;&gt;Node21 -->
<g id="edge44" class="edge"><title>Node8&#45;&gt;Node21</title>
<path fill="none" stroke="midnightblue" d="M465.928,-182.986C533.523,-176.48 752.12,-155.437 933,-138 957.662,-135.623 985.326,-132.953 1007.23,-130.84"/>
<polygon fill="midnightblue" stroke="midnightblue" points="1007.86,-134.295 1017.47,-129.85 1007.18,-127.327 1007.86,-134.295"/>
</g>
<!-- Node22 -->
<g id="node45" class="node"><title>Node22</title>
<polygon fill="white" stroke="#bfbfbf" points="260,-116.5 260,-137.5 310,-137.5 310,-116.5 260,-116.5"/>
<text text-anchor="middle" x="285" y="-124.5" font-family="Helvetica,sans-Serif" font-size="10.00">iomanip</text>
</g>
<!-- Node8&#45;&gt;Node22 -->
<g id="edge46" class="edge"><title>Node8&#45;&gt;Node22</title>
<path fill="none" stroke="midnightblue" d="M424.41,-177.536C397.945,-167.943 351.608,-151.145 319.665,-139.566"/>
<polygon fill="midnightblue" stroke="midnightblue" points="320.846,-136.271 310.252,-136.154 318.46,-142.852 320.846,-136.271"/>
</g>
<!-- Node10 -->
<g id="node20" class="node"><title>Node10</title>
<polygon fill="white" stroke="#bfbfbf" points="1034,-58.5 1034,-79.5 1078,-79.5 1078,-58.5 1034,-58.5"/>
<text text-anchor="middle" x="1056" y="-66.5" font-family="Helvetica,sans-Serif" font-size="10.00">vector</text>
</g>
<!-- Node9&#45;&gt;Node10 -->
<g id="edge20" class="edge"><title>Node9&#45;&gt;Node10</title>
<path fill="none" stroke="midnightblue" d="M914.253,-116.412C941.492,-107.68 981.258,-94.7988 1024.18,-80.2319"/>
<polygon fill="midnightblue" stroke="midnightblue" points="1025.33,-83.5355 1033.67,-76.9991 1023.08,-76.909 1025.33,-83.5355"/>
</g>
<!-- Node11 -->
<g id="node22" class="node"><title>Node11</title>
<polygon fill="white" stroke="#bfbfbf" points="964,-58.5 964,-79.5 1016,-79.5 1016,-58.5 964,-58.5"/>
<text text-anchor="middle" x="990" y="-66.5" font-family="Helvetica,sans-Serif" font-size="10.00">ostream</text>
</g>
<!-- Node9&#45;&gt;Node11 -->
<g id="edge22" class="edge"><title>Node9&#45;&gt;Node11</title>
<path fill="none" stroke="midnightblue" d="M900.739,-116.497C917.61,-107.519 942.109,-94.4835 961.174,-84.3387"/>
<polygon fill="midnightblue" stroke="midnightblue" points="962.856,-87.4086 970.039,-79.6212 959.567,-81.2289 962.856,-87.4086"/>
</g>
<!-- Node13 -->
<g id="node26" class="node"><title>Node13</title>
<a xlink:href="string_8h.html" target="_top" xlink:title="base/std_ext/string.h">
<polygon fill="white" stroke="black" points="838,-58.5 838,-79.5 946,-79.5 946,-58.5 838,-58.5"/>
<text text-anchor="middle" x="892" y="-66.5" font-family="Helvetica,sans-Serif" font-size="10.00">base/std_ext/string.h</text>
</a>
</g>
<!-- Node12&#45;&gt;Node13 -->
<g id="edge26" class="edge"><title>Node12&#45;&gt;Node13</title>
<path fill="none" stroke="midnightblue" d="M697.919,-116.497C737.56,-106.795 796.568,-92.3547 839.106,-81.9445"/>
<polygon fill="midnightblue" stroke="midnightblue" points="840.119,-85.2999 849.001,-79.5231 838.455,-78.5006 840.119,-85.2999"/>
</g>
<!-- Node16 -->
<g id="node33" class="node"><title>Node16</title>
<polygon fill="white" stroke="#bfbfbf" points="632,-58.5 632,-79.5 678,-79.5 678,-58.5 632,-58.5"/>
<text text-anchor="middle" x="655" y="-66.5" font-family="Helvetica,sans-Serif" font-size="10.00">cstring</text>
</g>
<!-- Node12&#45;&gt;Node16 -->
<g id="edge34" class="edge"><title>Node12&#45;&gt;Node16</title>
<path fill="none" stroke="midnightblue" d="M655,-116.362C655,-108.922 655,-98.7427 655,-89.7276"/>
<polygon fill="midnightblue" stroke="midnightblue" points="658.5,-89.5706 655,-79.5707 651.5,-89.5707 658.5,-89.5706"/>
</g>
<!-- Node12&#45;&gt;Node17 -->
<g id="edge36" class="edge"><title>Node12&#45;&gt;Node17</title>
<path fill="none" stroke="midnightblue" d="M619.144,-116.497C581.513,-105.474 522.994,-88.3314 487.505,-77.9358"/>
<polygon fill="midnightblue" stroke="midnightblue" points="488.292,-74.5193 477.711,-75.0669 486.324,-81.237 488.292,-74.5193"/>
</g>
<!-- Node13&#45;&gt;Node3 -->
<g id="edge28" class="edge"><title>Node13&#45;&gt;Node3</title>
<path fill="none" stroke="midnightblue" d="M863.387,-58.4966C835.386,-48.2177 792.89,-32.6178 764.318,-22.1293"/>
<polygon fill="midnightblue" stroke="midnightblue" points="765.432,-18.8101 754.839,-18.6496 763.02,-25.3813 765.432,-18.8101"/>
</g>
<!-- Node14 -->
<g id="node29" class="node"><title>Node14</title>
<polygon fill="white" stroke="#bfbfbf" points="866,-0.5 866,-21.5 918,-21.5 918,-0.5 866,-0.5"/>
<text text-anchor="middle" x="892" y="-8.5" font-family="Helvetica,sans-Serif" font-size="10.00">sstream</text>
</g>
<!-- Node13&#45;&gt;Node14 -->
<g id="edge30" class="edge"><title>Node13&#45;&gt;Node14</title>
<path fill="none" stroke="midnightblue" d="M892,-58.3619C892,-50.9219 892,-40.7427 892,-31.7276"/>
<polygon fill="midnightblue" stroke="midnightblue" points="895.5,-31.5706 892,-21.5707 888.5,-31.5707 895.5,-31.5706"/>
</g>
<!-- Node15 -->
<g id="node31" class="node"><title>Node15</title>
<polygon fill="white" stroke="#bfbfbf" points="1087,-0.5 1087,-21.5 1143,-21.5 1143,-0.5 1087,-0.5"/>
<text text-anchor="middle" x="1115" y="-8.5" font-family="Helvetica,sans-Serif" font-size="10.00">algorithm</text>
</g>
<!-- Node13&#45;&gt;Node15 -->
<g id="edge32" class="edge"><title>Node13&#45;&gt;Node15</title>
<path fill="none" stroke="midnightblue" d="M932.384,-58.4966C973.575,-47.7831 1036.99,-31.2892 1077.22,-20.8271"/>
<polygon fill="midnightblue" stroke="midnightblue" points="1078.12,-24.209 1086.92,-18.3044 1076.36,-17.4343 1078.12,-24.209"/>
</g>
<!-- Node23&#45;&gt;Node3 -->
<g id="edge56" class="edge"><title>Node23&#45;&gt;Node3</title>
<path fill="none" stroke="midnightblue" d="M744.723,-174.394C747.993,-152.506 754.238,-100.796 748,-58 746.687,-48.9958 744.031,-39.3181 741.381,-31.0986"/>
<polygon fill="midnightblue" stroke="midnightblue" points="744.687,-29.9496 738.13,-21.6276 738.066,-32.2223 744.687,-29.9496"/>
</g>
<!-- Node25&#45;&gt;Node3 -->
<g id="edge124" class="edge"><title>Node25&#45;&gt;Node3</title>
<path fill="none" stroke="midnightblue" d="M685.92,-427.991C521.442,-417.261 0,-377.743 0,-308 0,-308 0,-308 0,-127 0,-55.2294 76.6532,-76.4943 146,-58 252.798,-29.5179 597.557,-15.6515 703.043,-12.0034"/>
<polygon fill="midnightblue" stroke="midnightblue" points="703.447,-15.4918 713.322,-11.6543 703.209,-8.49584 703.447,-15.4918"/>
</g>
<!-- Node25&#45;&gt;Node10 -->
<g id="edge126" class="edge"><title>Node25&#45;&gt;Node10</title>
<path fill="none" stroke="midnightblue" d="M781.734,-420.418C881.027,-397.285 1104,-341.595 1104,-308 1104,-308 1104,-308 1104,-185 1104,-148.575 1083.54,-110.271 1069.34,-88.0651"/>
<polygon fill="midnightblue" stroke="midnightblue" points="1072.16,-85.9831 1063.71,-79.5863 1066.33,-89.8538 1072.16,-85.9831"/>
</g>
<!-- Node26 -->
<g id="node57" class="node"><title>Node26</title>
<a xlink:href="root__draw_8h.html" target="_top" xlink:title="analysis/plot/root\l_draw.h">
<polygon fill="white" stroke="black" points="359.5,-291 359.5,-325 450.5,-325 450.5,-291 359.5,-291"/>
<text text-anchor="start" x="367.5" y="-312" font-family="Helvetica,sans-Serif" font-size="10.00">analysis/plot/root</text>
<text text-anchor="middle" x="405" y="-299" font-family="Helvetica,sans-Serif" font-size="10.00">_draw.h</text>
</a>
</g>
<!-- Node25&#45;&gt;Node26 -->
<g id="edge62" class="edge"><title>Node25&#45;&gt;Node26</title>
<path fill="none" stroke="midnightblue" d="M706.579,-420.407C651.929,-400.037 531.329,-355.086 460.305,-328.614"/>
<polygon fill="midnightblue" stroke="midnightblue" points="461.216,-325.218 450.624,-325.005 458.772,-331.777 461.216,-325.218"/>
</g>
<!-- Node28 -->
<g id="node64" class="node"><title>Node28</title>
<polygon fill="white" stroke="#bfbfbf" points="947,-232.5 947,-253.5 999,-253.5 999,-232.5 947,-232.5"/>
<text text-anchor="middle" x="973" y="-240.5" font-family="Helvetica,sans-Serif" font-size="10.00">memory</text>
</g>
<!-- Node25&#45;&gt;Node28 -->
<g id="edge122" class="edge"><title>Node25&#45;&gt;Node28</title>
<path fill="none" stroke="midnightblue" d="M748.596,-420.271C772.67,-401.272 824.37,-360.467 868,-326 896.846,-303.212 930.139,-276.892 951.366,-260.107"/>
<polygon fill="midnightblue" stroke="midnightblue" points="953.737,-262.695 959.41,-253.747 949.395,-257.204 953.737,-262.695"/>
</g>
<!-- Node29 -->
<g id="node68" class="node"><title>Node29</title>
<a xlink:href="interval_8h.html" target="_top" xlink:title="base/interval.h">
<polygon fill="white" stroke="black" points="1132,-174.5 1132,-195.5 1212,-195.5 1212,-174.5 1132,-174.5"/>
<text text-anchor="middle" x="1172" y="-182.5" font-family="Helvetica,sans-Serif" font-size="10.00">base/interval.h</text>
</a>
</g>
<!-- Node25&#45;&gt;Node29 -->
<g id="edge78" class="edge"><title>Node25&#45;&gt;Node29</title>
<path fill="none" stroke="midnightblue" d="M784.002,-421.431C787.043,-420.923 790.061,-420.441 793,-420 864.86,-409.222 1062.8,-431.258 1118,-384 1170.94,-338.671 1174.59,-247.188 1173.3,-205.972"/>
<polygon fill="midnightblue" stroke="midnightblue" points="1176.79,-205.593 1172.84,-195.76 1169.79,-205.907 1176.79,-205.593"/>
</g>
<!-- Node32 -->
<g id="node77" class="node"><title>Node32</title>
<a xlink:href="_data_manager_8h.html" target="_top" xlink:title="DataManager.h">
<polygon fill="white" stroke="black" points="693.5,-362.5 693.5,-383.5 776.5,-383.5 776.5,-362.5 693.5,-362.5"/>
<text text-anchor="middle" x="735" y="-370.5" font-family="Helvetica,sans-Serif" font-size="10.00">DataManager.h</text>
</a>
</g>
<!-- Node25&#45;&gt;Node32 -->
<g id="edge90" class="edge"><title>Node25&#45;&gt;Node32</title>
<path fill="none" stroke="midnightblue" d="M735,-420.362C735,-412.922 735,-402.743 735,-393.728"/>
<polygon fill="midnightblue" stroke="midnightblue" points="738.5,-393.571 735,-383.571 731.5,-393.571 738.5,-393.571"/>
</g>
<!-- Node26&#45;&gt;Node3 -->
<g id="edge64" class="edge"><title>Node26&#45;&gt;Node3</title>
<path fill="none" stroke="midnightblue" d="M383.786,-290.728C359.535,-271.192 321.117,-240.932 305,-232 226.274,-188.372 81.9602,-185.625 139,-116 211.374,-27.6574 591.105,-13.6336 702.966,-11.4151"/>
<polygon fill="midnightblue" stroke="midnightblue" points="703.293,-14.9099 713.228,-11.2305 703.167,-7.91105 703.293,-14.9099"/>
</g>
<!-- Node26&#45;&gt;Node4 -->
<g id="edge70" class="edge"><title>Node26&#45;&gt;Node4</title>
<path fill="none" stroke="midnightblue" d="M371.895,-290.922C351.311,-280.303 325.185,-266.825 305.886,-256.87"/>
<polygon fill="midnightblue" stroke="midnightblue" points="307.24,-253.63 296.748,-252.156 304.031,-259.851 307.24,-253.63"/>
</g>
<!-- Node26&#45;&gt;Node5 -->
<g id="edge74" class="edge"><title>Node26&#45;&gt;Node5</title>
<path fill="none" stroke="midnightblue" d="M359.49,-292.431C327.394,-281.45 284.84,-266.893 254.237,-256.423"/>
<polygon fill="midnightblue" stroke="midnightblue" points="255.344,-253.103 244.749,-253.177 253.078,-259.726 255.344,-253.103"/>
</g>
<!-- Node26&#45;&gt;Node6 -->
<g id="edge76" class="edge"><title>Node26&#45;&gt;Node6</title>
<path fill="none" stroke="midnightblue" d="M393.845,-290.946C381.884,-273.874 361.422,-247.918 338,-232 298.931,-205.449 277.194,-222.366 238,-196 218.005,-182.549 200.203,-161.249 188.86,-145.871"/>
<polygon fill="midnightblue" stroke="midnightblue" points="191.619,-143.711 182.961,-137.605 185.921,-147.778 191.619,-143.711"/>
</g>
<!-- Node26&#45;&gt;Node10 -->
<g id="edge68" class="edge"><title>Node26&#45;&gt;Node10</title>
<path fill="none" stroke="midnightblue" d="M450.539,-304.802C510.797,-299.469 619.595,-285.991 707,-254 725.326,-247.292 727.82,-241.257 745,-232 827.239,-187.688 850.462,-181.754 933,-138 966.378,-120.306 1004.2,-98.8771 1028.99,-84.6419"/>
<polygon fill="midnightblue" stroke="midnightblue" points="1030.89,-87.5839 1037.81,-79.5611 1027.4,-81.5175 1030.89,-87.5839"/>
</g>
<!-- Node27 -->
<g id="node60" class="node"><title>Node27</title>
<polygon fill="white" stroke="#bfbfbf" points="753.5,-232.5 753.5,-253.5 782.5,-253.5 782.5,-232.5 753.5,-232.5"/>
<text text-anchor="middle" x="768" y="-240.5" font-family="Helvetica,sans-Serif" font-size="10.00">list</text>
</g>
<!-- Node26&#45;&gt;Node27 -->
<g id="edge66" class="edge"><title>Node26&#45;&gt;Node27</title>
<path fill="none" stroke="midnightblue" d="M450.63,-303.78C515.719,-297.057 638.573,-281.752 740,-254 741.247,-253.659 742.514,-253.281 743.787,-252.876"/>
<polygon fill="midnightblue" stroke="midnightblue" points="745.153,-256.105 753.379,-249.427 742.784,-249.517 745.153,-256.105"/>
</g>
<!-- Node26&#45;&gt;Node28 -->
<g id="edge72" class="edge"><title>Node26&#45;&gt;Node28</title>
<path fill="none" stroke="midnightblue" d="M450.522,-302.791C560.121,-290.249 836.945,-258.57 936.57,-247.169"/>
<polygon fill="midnightblue" stroke="midnightblue" points="937.201,-250.62 946.738,-246.005 936.405,-243.665 937.201,-250.62"/>
</g>
<!-- Node29&#45;&gt;Node9 -->
<g id="edge84" class="edge"><title>Node29&#45;&gt;Node9</title>
<path fill="none" stroke="midnightblue" d="M1131.84,-176.996C1080.36,-166.736 990.963,-148.917 933.959,-137.555"/>
<polygon fill="midnightblue" stroke="midnightblue" points="934.548,-134.104 924.057,-135.582 933.18,-140.969 934.548,-134.104"/>
</g>
<!-- Node29&#45;&gt;Node15 -->
<g id="edge80" class="edge"><title>Node29&#45;&gt;Node15</title>
<path fill="none" stroke="midnightblue" d="M1199.95,-174.365C1226.11,-162.59 1259.45,-141.816 1247,-116 1226.56,-73.6306 1179.8,-43.0899 1147.79,-26.2164"/>
<polygon fill="midnightblue" stroke="midnightblue" points="1149.29,-23.0483 1138.79,-21.6209 1146.1,-29.2835 1149.29,-23.0483"/>
</g>
<!-- Node29&#45;&gt;Node21 -->
<g id="edge82" class="edge"><title>Node29&#45;&gt;Node21</title>
<path fill="none" stroke="midnightblue" d="M1149.36,-174.497C1129.75,-165.397 1101.15,-152.127 1079.17,-141.925"/>
<polygon fill="midnightblue" stroke="midnightblue" points="1080.43,-138.655 1069.89,-137.621 1077.49,-145.005 1080.43,-138.655"/>
</g>
<!-- Node30 -->
<g id="node73" class="node"><title>Node30</title>
<a xlink:href="types_8h.html" target="_top" xlink:title="types.h">
<polygon fill="white" stroke="black" points="1131.5,-116.5 1131.5,-137.5 1180.5,-137.5 1180.5,-116.5 1131.5,-116.5"/>
<text text-anchor="middle" x="1156" y="-124.5" font-family="Helvetica,sans-Serif" font-size="10.00">types.h</text>
</a>
</g>
<!-- Node29&#45;&gt;Node30 -->
<g id="edge86" class="edge"><title>Node29&#45;&gt;Node30</title>
<path fill="none" stroke="midnightblue" d="M1169.07,-174.362C1166.99,-166.84 1164.14,-156.519 1161.64,-147.431"/>
<polygon fill="midnightblue" stroke="midnightblue" points="1164.95,-146.28 1158.92,-137.571 1158.2,-148.141 1164.95,-146.28"/>
</g>
<!-- Node31 -->
<g id="node75" class="node"><title>Node31</title>
<polygon fill="white" stroke="#bfbfbf" points="1198,-116.5 1198,-137.5 1238,-137.5 1238,-116.5 1198,-116.5"/>
<text text-anchor="middle" x="1218" y="-124.5" font-family="Helvetica,sans-Serif" font-size="10.00">limits</text>
</g>
<!-- Node29&#45;&gt;Node31 -->
<g id="edge88" class="edge"><title>Node29&#45;&gt;Node31</title>
<path fill="none" stroke="midnightblue" d="M1180.44,-174.362C1186.79,-166.35 1195.67,-155.161 1203.19,-145.67"/>
<polygon fill="midnightblue" stroke="midnightblue" points="1206.14,-147.581 1209.62,-137.571 1200.66,-143.231 1206.14,-147.581"/>
</g>
<!-- Node32&#45;&gt;Node3 -->
<g id="edge118" class="edge"><title>Node32&#45;&gt;Node3</title>
<path fill="none" stroke="midnightblue" d="M746.391,-362.393C767.372,-341.64 810,-293.288 810,-243 810,-243 810,-243 810,-127 810,-86.5104 777.203,-49.1585 754.698,-28.2949"/>
<polygon fill="midnightblue" stroke="midnightblue" points="757.026,-25.681 747.238,-21.6247 752.36,-30.8993 757.026,-25.681"/>
</g>
<!-- Node32&#45;&gt;Node7 -->
<g id="edge92" class="edge"><title>Node32&#45;&gt;Node7</title>
<path fill="none" stroke="midnightblue" d="M708.809,-362.362C692.759,-354.561 673.048,-342.455 661,-326 647.58,-307.673 642.342,-281.757 640.299,-263.78"/>
<polygon fill="midnightblue" stroke="midnightblue" points="643.779,-263.397 639.396,-253.751 636.807,-264.025 643.779,-263.397"/>
</g>
<!-- Node32&#45;&gt;Node27 -->
<g id="edge116" class="edge"><title>Node32&#45;&gt;Node27</title>
<path fill="none" stroke="midnightblue" d="M737.771,-362.174C740.208,-352.649 743.847,-338.406 747,-326 752.406,-304.729 758.562,-280.383 762.805,-263.586"/>
<polygon fill="midnightblue" stroke="midnightblue" points="766.235,-264.299 765.289,-253.746 759.447,-262.585 766.235,-264.299"/>
</g>
<!-- Node32&#45;&gt;Node28 -->
<g id="edge120" class="edge"><title>Node32&#45;&gt;Node28</title>
<path fill="none" stroke="midnightblue" d="M755.216,-362.488C773.3,-353.046 800.5,-338.748 824,-326 866.509,-302.939 915.425,-275.52 945.27,-258.69"/>
<polygon fill="midnightblue" stroke="midnightblue" points="947.27,-261.581 954.258,-253.617 943.829,-255.485 947.27,-261.581"/>
</g>
<!-- Node33 -->
<g id="node80" class="node"><title>Node33</title>
<a xlink:href="_t_data_record_8h.html" target="_top" xlink:title="tree/TDataRecord.h">
<polygon fill="white" stroke="black" points="391.5,-232.5 391.5,-253.5 494.5,-253.5 494.5,-232.5 391.5,-232.5"/>
<text text-anchor="middle" x="443" y="-240.5" font-family="Helvetica,sans-Serif" font-size="10.00">tree/TDataRecord.h</text>
</a>
</g>
<!-- Node32&#45;&gt;Node33 -->
<g id="edge94" class="edge"><title>Node32&#45;&gt;Node33</title>
<path fill="none" stroke="midnightblue" d="M711.104,-362.362C659.108,-339.212 535.603,-284.228 476.13,-257.75"/>
<polygon fill="midnightblue" stroke="midnightblue" points="477.375,-254.473 466.816,-253.603 474.528,-260.868 477.375,-254.473"/>
</g>
<!-- Node34 -->
<g id="node86" class="node"><title>Node34</title>
<a xlink:href="_data_base_8h.html" target="_top" xlink:title="DataBase.h">
<polygon fill="white" stroke="black" points="670,-297.5 670,-318.5 738,-318.5 738,-297.5 670,-297.5"/>
<text text-anchor="middle" x="704" y="-305.5" font-family="Helvetica,sans-Serif" font-size="10.00">DataBase.h</text>
</a>
</g>
<!-- Node32&#45;&gt;Node34 -->
<g id="edge104" class="edge"><title>Node32&#45;&gt;Node34</title>
<path fill="none" stroke="midnightblue" d="M729.881,-362.267C725.412,-352.896 718.812,-339.057 713.396,-327.7"/>
<polygon fill="midnightblue" stroke="midnightblue" points="716.488,-326.053 709.024,-318.534 710.169,-329.066 716.488,-326.053"/>
</g>
<!-- Node33&#45;&gt;Node6 -->
<g id="edge98" class="edge"><title>Node33&#45;&gt;Node6</title>
<path fill="none" stroke="midnightblue" d="M391.631,-232.44C358.799,-224.669 315.819,-212.568 280,-196 249.198,-181.752 217.157,-159.11 196.923,-143.679"/>
<polygon fill="midnightblue" stroke="midnightblue" points="199.062,-140.908 189.012,-137.553 194.776,-146.443 199.062,-140.908"/>
</g>
<!-- Node33&#45;&gt;Node8 -->
<g id="edge96" class="edge"><title>Node33&#45;&gt;Node8</title>
<path fill="none" stroke="midnightblue" d="M443.367,-232.362C443.623,-224.922 443.974,-214.743 444.285,-205.728"/>
<polygon fill="midnightblue" stroke="midnightblue" points="447.789,-205.685 444.635,-195.571 440.793,-205.444 447.789,-205.685"/>
</g>
<!-- Node33&#45;&gt;Node17 -->
<g id="edge102" class="edge"><title>Node33&#45;&gt;Node17</title>
<path fill="none" stroke="midnightblue" d="M395.668,-232.391C349.156,-219.121 280.932,-191.344 251,-138 246.215,-129.473 244.903,-123.644 251,-116 272.612,-88.9012 374.575,-76.1989 426.48,-71.4053"/>
<polygon fill="midnightblue" stroke="midnightblue" points="426.799,-74.8908 436.453,-70.525 426.184,-67.918 426.799,-74.8908"/>
</g>
<!-- Node33&#45;&gt;Node22 -->
<g id="edge100" class="edge"><title>Node33&#45;&gt;Node22</title>
<path fill="none" stroke="midnightblue" d="M428.419,-232.295C400.788,-212.009 340.627,-167.84 307.683,-143.653"/>
<polygon fill="midnightblue" stroke="midnightblue" points="309.678,-140.776 299.546,-137.679 305.535,-146.419 309.678,-140.776"/>
</g>
<!-- Node34&#45;&gt;Node4 -->
<g id="edge106" class="edge"><title>Node34&#45;&gt;Node4</title>
<path fill="none" stroke="midnightblue" d="M669.939,-302.791C588.084,-290.272 381.565,-258.686 306.672,-247.232"/>
<polygon fill="midnightblue" stroke="midnightblue" points="307.022,-243.745 296.607,-245.693 305.963,-250.665 307.022,-243.745"/>
</g>
<!-- Node34&#45;&gt;Node7 -->
<g id="edge114" class="edge"><title>Node34&#45;&gt;Node7</title>
<path fill="none" stroke="midnightblue" d="M693.267,-297.267C683.328,-287.328 668.363,-272.363 656.664,-260.664"/>
<polygon fill="midnightblue" stroke="midnightblue" points="659.08,-258.13 649.534,-253.534 654.13,-263.08 659.08,-258.13"/>
</g>
<!-- Node34&#45;&gt;Node10 -->
<g id="edge108" class="edge"><title>Node34&#45;&gt;Node10</title>
<path fill="none" stroke="midnightblue" d="M728.062,-297.476C768.246,-279.406 850.83,-240.135 914,-196 939.619,-178.101 1004.8,-117.418 1037.17,-86.873"/>
<polygon fill="midnightblue" stroke="midnightblue" points="1039.79,-89.215 1044.65,-79.8011 1034.98,-84.1288 1039.79,-89.215"/>
</g>
<!-- Node34&#45;&gt;Node27 -->
<g id="edge110" class="edge"><title>Node34&#45;&gt;Node27</title>
<path fill="none" stroke="midnightblue" d="M714.568,-297.267C724.354,-287.328 739.088,-272.363 750.607,-260.664"/>
<polygon fill="midnightblue" stroke="midnightblue" points="753.106,-263.115 757.628,-253.534 748.118,-258.204 753.106,-263.115"/>
</g>
<!-- Node34&#45;&gt;Node33 -->
<g id="edge112" class="edge"><title>Node34&#45;&gt;Node33</title>
<path fill="none" stroke="midnightblue" d="M669.879,-299.502C625.446,-288.437 547.333,-268.983 495.373,-256.043"/>
<polygon fill="midnightblue" stroke="midnightblue" points="495.896,-252.567 485.347,-253.546 494.205,-259.359 495.896,-252.567"/>
</g>
</g>
</svg>
