<?xml version="1.0" encoding="UTF-8" standalone="no"?>
<!DOCTYPE svg PUBLIC "-//W3C//DTD SVG 1.1//EN"
 "http://www.w3.org/Graphics/SVG/1.1/DTD/svg11.dtd">
<!-- Generated by graphviz version 2.26.3 (20100126.1600)
 -->
<!-- Title: src/rint/TCalibrationEditor.h Pages: 1 -->
<svg width="841pt" height="320pt"
 viewBox="0.00 0.00 841.00 320.00" xmlns="http://www.w3.org/2000/svg" xmlns:xlink="http://www.w3.org/1999/xlink">
<g id="graph1" class="graph" transform="scale(1 1) rotate(0) translate(4 316)">
<title>src/rint/TCalibrationEditor.h</title>
<polygon fill="white" stroke="white" points="-4,5 -4,-316 838,-316 838,5 -4,5"/>
<!-- Node1 -->
<g id="node1" class="node"><title>Node1</title>
<polygon fill="#bfbfbf" stroke="black" points="346,-290.5 346,-311.5 482,-311.5 482,-290.5 346,-290.5"/>
<text text-anchor="middle" x="414" y="-298.5" font-family="Helvetica,sans-Serif" font-size="10.00">src/rint/TCalibrationEditor.h</text>
</g>
<!-- Node2 -->
<g id="node3" class="node"><title>Node2</title>
<polygon fill="white" stroke="#bfbfbf" points="65.5,-0.5 65.5,-21.5 106.5,-21.5 106.5,-0.5 65.5,-0.5"/>
<text text-anchor="middle" x="86" y="-8.5" font-family="Helvetica,sans-Serif" font-size="10.00">string</text>
</g>
<!-- Node1&#45;&gt;Node2 -->
<g id="edge2" class="edge"><title>Node1&#45;&gt;Node2</title>
<path fill="none" stroke="midnightblue" d="M345.636,-295.985C228.049,-285.461 0,-255.911 0,-185 0,-185 0,-185 0,-127 0,-84.8807 37.0406,-48.0839 62.5037,-27.7644"/>
<polygon fill="midnightblue" stroke="midnightblue" points="64.8299,-30.3908 70.6249,-21.5213 60.5636,-24.8411 64.8299,-30.3908"/>
</g>
<!-- Node3 -->
<g id="node5" class="node"><title>Node3</title>
<polygon fill="white" stroke="#bfbfbf" points="279.5,-232.5 279.5,-253.5 314.5,-253.5 314.5,-232.5 279.5,-232.5"/>
<text text-anchor="middle" x="297" y="-240.5" font-family="Helvetica,sans-Serif" font-size="10.00">map</text>
</g>
<!-- Node1&#45;&gt;Node3 -->
<g id="edge4" class="edge"><title>Node1&#45;&gt;Node3</title>
<path fill="none" stroke="midnightblue" d="M392.812,-290.497C373.396,-280.872 344.569,-266.581 323.608,-256.19"/>
<polygon fill="midnightblue" stroke="midnightblue" points="325.107,-253.027 314.593,-251.721 321.998,-259.299 325.107,-253.027"/>
</g>
<!-- Node4 -->
<g id="node7" class="node"><title>Node4</title>
<polygon fill="white" stroke="#bfbfbf" points="331.5,-232.5 331.5,-253.5 390.5,-253.5 390.5,-232.5 331.5,-232.5"/>
<text text-anchor="middle" x="361" y="-240.5" font-family="Helvetica,sans-Serif" font-size="10.00">functional</text>
</g>
<!-- Node1&#45;&gt;Node4 -->
<g id="edge6" class="edge"><title>Node1&#45;&gt;Node4</title>
<path fill="none" stroke="midnightblue" d="M404.279,-290.362C396.808,-282.186 386.314,-270.702 377.531,-261.091"/>
<polygon fill="midnightblue" stroke="midnightblue" points="379.989,-258.592 370.659,-253.571 374.821,-263.314 379.989,-258.592"/>
</g>
<!-- Node5 -->
<g id="node9" class="node"><title>Node5</title>
<polygon fill="white" stroke="#bfbfbf" points="777,-116.5 777,-137.5 833,-137.5 833,-116.5 777,-116.5"/>
<text text-anchor="middle" x="805" y="-124.5" font-family="Helvetica,sans-Serif" font-size="10.00">Rtypes.h</text>
</g>
<!-- Node1&#45;&gt;Node5 -->
<g id="edge8" class="edge"><title>Node1&#45;&gt;Node5</title>
<path fill="none" stroke="midnightblue" d="M443.076,-290.351C467.729,-281.168 503.932,-267.322 535,-254 623.152,-216.201 725.03,-166.644 774.665,-142.111"/>
<polygon fill="midnightblue" stroke="midnightblue" points="776.469,-145.123 783.876,-137.548 773.362,-138.85 776.469,-145.123"/>
</g>
<!-- Node6 -->
<g id="node11" class="node"><title>Node6</title>
<a xlink:href="_t_calibration_data_8h.html" target="_top" xlink:title="tree/TCalibrationData.h">
<polygon fill="white" stroke="black" points="408,-232.5 408,-253.5 526,-253.5 526,-232.5 408,-232.5"/>
<text text-anchor="middle" x="467" y="-240.5" font-family="Helvetica,sans-Serif" font-size="10.00">tree/TCalibrationData.h</text>
</a>
</g>
<!-- Node1&#45;&gt;Node6 -->
<g id="edge10" class="edge"><title>Node1&#45;&gt;Node6</title>
<path fill="none" stroke="midnightblue" d="M423.721,-290.362C431.192,-282.186 441.686,-270.702 450.469,-261.091"/>
<polygon fill="midnightblue" stroke="midnightblue" points="453.179,-263.314 457.341,-253.571 448.011,-258.592 453.179,-263.314"/>
</g>
<!-- Node23 -->
<g id="node51" class="node"><title>Node23</title>
<polygon fill="white" stroke="#bfbfbf" points="710.5,-232.5 710.5,-253.5 775.5,-253.5 775.5,-232.5 710.5,-232.5"/>
<text text-anchor="middle" x="743" y="-240.5" font-family="Helvetica,sans-Serif" font-size="10.00">TCanvas.h</text>
</g>
<!-- Node1&#45;&gt;Node23 -->
<g id="edge56" class="edge"><title>Node1&#45;&gt;Node23</title>
<path fill="none" stroke="midnightblue" d="M482.004,-291.076C539.483,-282.361 623.899,-268.792 697,-254 698.087,-253.78 699.186,-253.553 700.295,-253.32"/>
<polygon fill="midnightblue" stroke="midnightblue" points="701.381,-256.664 710.395,-251.096 699.876,-249.828 701.381,-256.664"/>
</g>
<!-- Node6&#45;&gt;Node2 -->
<g id="edge48" class="edge"><title>Node6&#45;&gt;Node2</title>
<path fill="none" stroke="midnightblue" d="M410.802,-232.47C324.344,-215.203 164.44,-178.696 124,-138 109.054,-122.959 95.9353,-63.7678 89.7576,-31.7802"/>
<polygon fill="midnightblue" stroke="midnightblue" points="93.1538,-30.9007 87.8703,-21.7172 86.2737,-32.1911 93.1538,-30.9007"/>
</g>
<!-- Node7 -->
<g id="node13" class="node"><title>Node7</title>
<a xlink:href="_t_i_d_8h.html" target="_top" xlink:title="TID.h">
<polygon fill="white" stroke="black" points="446.5,-174.5 446.5,-195.5 487.5,-195.5 487.5,-174.5 446.5,-174.5"/>
<text text-anchor="middle" x="467" y="-182.5" font-family="Helvetica,sans-Serif" font-size="10.00">TID.h</text>
</a>
</g>
<!-- Node6&#45;&gt;Node7 -->
<g id="edge12" class="edge"><title>Node6&#45;&gt;Node7</title>
<path fill="none" stroke="midnightblue" d="M467,-232.362C467,-224.922 467,-214.743 467,-205.728"/>
<polygon fill="midnightblue" stroke="midnightblue" points="470.5,-205.571 467,-195.571 463.5,-205.571 470.5,-205.571"/>
</g>
<!-- Node16 -->
<g id="node33" class="node"><title>Node16</title>
<polygon fill="white" stroke="#bfbfbf" points="446.5,-58.5 446.5,-79.5 487.5,-79.5 487.5,-58.5 446.5,-58.5"/>
<text text-anchor="middle" x="467" y="-66.5" font-family="Helvetica,sans-Serif" font-size="10.00">ctime</text>
</g>
<!-- Node6&#45;&gt;Node16 -->
<g id="edge50" class="edge"><title>Node6&#45;&gt;Node16</title>
<path fill="none" stroke="midnightblue" d="M502.185,-232.448C560.255,-213.221 665.966,-169.49 626,-116 610.593,-95.3801 539.113,-80.6321 497.425,-73.6154"/>
<polygon fill="midnightblue" stroke="midnightblue" points="497.953,-70.1554 487.52,-71.9992 496.826,-77.0641 497.953,-70.1554"/>
</g>
<!-- Node22 -->
<g id="node48" class="node"><title>Node22</title>
<a xlink:href="_git_info_8h.html" target="_top" xlink:title="base/GitInfo.h">
<polygon fill="white" stroke="black" points="28,-174.5 28,-195.5 106,-195.5 106,-174.5 28,-174.5"/>
<text text-anchor="middle" x="67" y="-182.5" font-family="Helvetica,sans-Serif" font-size="10.00">base/GitInfo.h</text>
</a>
</g>
<!-- Node6&#45;&gt;Node22 -->
<g id="edge52" class="edge"><title>Node6&#45;&gt;Node22</title>
<path fill="none" stroke="midnightblue" d="M407.679,-233.289C404.746,-232.845 401.84,-232.413 399,-232 275.272,-214.015 243.299,-216.719 120,-196 118.723,-195.785 117.43,-195.562 116.126,-195.331"/>
<polygon fill="midnightblue" stroke="midnightblue" points="116.483,-191.838 106.011,-193.449 115.201,-198.72 116.483,-191.838"/>
</g>
<!-- Node7&#45;&gt;Node5 -->
<g id="edge14" class="edge"><title>Node7&#45;&gt;Node5</title>
<path fill="none" stroke="midnightblue" d="M487.617,-182.748C535.189,-177.347 656.399,-162.426 766.852,-138.036"/>
<polygon fill="midnightblue" stroke="midnightblue" points="767.829,-141.404 776.821,-135.802 766.298,-134.573 767.829,-141.404"/>
</g>
<!-- Node8 -->
<g id="node16" class="node"><title>Node8</title>
<a xlink:href="printable_8h.html" target="_top" xlink:title="base/printable.h">
<polygon fill="white" stroke="black" points="673,-116.5 673,-137.5 759,-137.5 759,-116.5 673,-116.5"/>
<text text-anchor="middle" x="716" y="-124.5" font-family="Helvetica,sans-Serif" font-size="10.00">base/printable.h</text>
</a>
</g>
<!-- Node7&#45;&gt;Node8 -->
<g id="edge16" class="edge"><title>Node7&#45;&gt;Node8</title>
<path fill="none" stroke="midnightblue" d="M487.801,-180.155C525.984,-171.261 608.337,-152.078 662.954,-139.356"/>
<polygon fill="midnightblue" stroke="midnightblue" points="663.868,-142.737 672.813,-137.06 662.28,-135.92 663.868,-142.737"/>
</g>
<!-- Node11 -->
<g id="node22" class="node"><title>Node11</title>
<a xlink:href="time_8h.html" target="_top" xlink:title="base/std_ext/time.h">
<polygon fill="white" stroke="black" points="200.5,-116.5 200.5,-137.5 303.5,-137.5 303.5,-116.5 200.5,-116.5"/>
<text text-anchor="middle" x="252" y="-124.5" font-family="Helvetica,sans-Serif" font-size="10.00">base/std_ext/time.h</text>
</a>
</g>
<!-- Node7&#45;&gt;Node11 -->
<g id="edge22" class="edge"><title>Node7&#45;&gt;Node11</title>
<path fill="none" stroke="midnightblue" d="M446.385,-179.439C413.093,-170.458 346.593,-152.518 300.718,-140.142"/>
<polygon fill="midnightblue" stroke="midnightblue" points="301.54,-136.739 290.974,-137.514 299.717,-143.498 301.54,-136.739"/>
</g>
<!-- Node7&#45;&gt;Node16 -->
<g id="edge46" class="edge"><title>Node7&#45;&gt;Node16</title>
<path fill="none" stroke="midnightblue" d="M467,-174.295C467,-155.131 467,-114.654 467,-89.8434"/>
<polygon fill="midnightblue" stroke="midnightblue" points="470.5,-89.6792 467,-79.6792 463.5,-89.6792 470.5,-89.6792"/>
</g>
<!-- Node17 -->
<g id="node35" class="node"><title>Node17</title>
<polygon fill="white" stroke="#bfbfbf" points="321,-116.5 321,-137.5 383,-137.5 383,-116.5 321,-116.5"/>
<text text-anchor="middle" x="352" y="-124.5" font-family="Helvetica,sans-Serif" font-size="10.00">type_traits</text>
</g>
<!-- Node7&#45;&gt;Node17 -->
<g id="edge36" class="edge"><title>Node7&#45;&gt;Node17</title>
<path fill="none" stroke="midnightblue" d="M446.44,-174.631C428.593,-165.63 402.512,-152.475 382.277,-142.27"/>
<polygon fill="midnightblue" stroke="midnightblue" points="383.665,-139.05 373.16,-137.672 380.512,-145.3 383.665,-139.05"/>
</g>
<!-- Node18 -->
<g id="node37" class="node"><title>Node18</title>
<polygon fill="white" stroke="#bfbfbf" points="401,-116.5 401,-137.5 439,-137.5 439,-116.5 401,-116.5"/>
<text text-anchor="middle" x="420" y="-124.5" font-family="Helvetica,sans-Serif" font-size="10.00">tuple</text>
</g>
<!-- Node7&#45;&gt;Node18 -->
<g id="edge38" class="edge"><title>Node7&#45;&gt;Node18</title>
<path fill="none" stroke="midnightblue" d="M458.379,-174.362C451.82,-166.268 442.634,-154.932 434.894,-145.38"/>
<polygon fill="midnightblue" stroke="midnightblue" points="437.581,-143.136 428.566,-137.571 432.142,-147.544 437.581,-143.136"/>
</g>
<!-- Node19 -->
<g id="node39" class="node"><title>Node19</title>
<polygon fill="white" stroke="#bfbfbf" points="495,-116.5 495,-137.5 541,-137.5 541,-116.5 495,-116.5"/>
<text text-anchor="middle" x="518" y="-124.5" font-family="Helvetica,sans-Serif" font-size="10.00">cstdint</text>
</g>
<!-- Node7&#45;&gt;Node19 -->
<g id="edge40" class="edge"><title>Node7&#45;&gt;Node19</title>
<path fill="none" stroke="midnightblue" d="M476.354,-174.362C483.543,-166.186 493.641,-154.702 502.093,-145.091"/>
<polygon fill="midnightblue" stroke="midnightblue" points="504.73,-147.392 508.705,-137.571 499.473,-142.769 504.73,-147.392"/>
</g>
<!-- Node20 -->
<g id="node41" class="node"><title>Node20</title>
<polygon fill="white" stroke="#bfbfbf" points="558.5,-116.5 558.5,-137.5 617.5,-137.5 617.5,-116.5 558.5,-116.5"/>
<text text-anchor="middle" x="588" y="-124.5" font-family="Helvetica,sans-Serif" font-size="10.00">stdexcept</text>
</g>
<!-- Node7&#45;&gt;Node20 -->
<g id="edge42" class="edge"><title>Node7&#45;&gt;Node20</title>
<path fill="none" stroke="midnightblue" d="M487.526,-175.161C506.438,-166.096 534.784,-152.509 556.55,-142.075"/>
<polygon fill="midnightblue" stroke="midnightblue" points="558.225,-145.154 565.73,-137.675 555.199,-138.841 558.225,-145.154"/>
</g>
<!-- Node21 -->
<g id="node43" class="node"><title>Node21</title>
<polygon fill="white" stroke="#bfbfbf" points="133,-116.5 133,-137.5 183,-137.5 183,-116.5 133,-116.5"/>
<text text-anchor="middle" x="158" y="-124.5" font-family="Helvetica,sans-Serif" font-size="10.00">iomanip</text>
</g>
<!-- Node7&#45;&gt;Node21 -->
<g id="edge44" class="edge"><title>Node7&#45;&gt;Node21</title>
<path fill="none" stroke="midnightblue" d="M446.439,-182.514C401.91,-176.913 293.149,-162.07 193.098,-138.011"/>
<polygon fill="midnightblue" stroke="midnightblue" points="193.68,-134.55 183.135,-135.577 192.019,-141.35 193.68,-134.55"/>
</g>
<!-- Node9 -->
<g id="node18" class="node"><title>Node9</title>
<polygon fill="white" stroke="#bfbfbf" points="727,-58.5 727,-79.5 771,-79.5 771,-58.5 727,-58.5"/>
<text text-anchor="middle" x="749" y="-66.5" font-family="Helvetica,sans-Serif" font-size="10.00">vector</text>
</g>
<!-- Node8&#45;&gt;Node9 -->
<g id="edge18" class="edge"><title>Node8&#45;&gt;Node9</title>
<path fill="none" stroke="midnightblue" d="M722.053,-116.362C726.472,-108.595 732.59,-97.8426 737.879,-88.5458"/>
<polygon fill="midnightblue" stroke="midnightblue" points="741.082,-89.9932 742.986,-79.5707 734.998,-86.5315 741.082,-89.9932"/>
</g>
<!-- Node10 -->
<g id="node20" class="node"><title>Node10</title>
<polygon fill="white" stroke="#bfbfbf" points="657,-58.5 657,-79.5 709,-79.5 709,-58.5 657,-58.5"/>
<text text-anchor="middle" x="683" y="-66.5" font-family="Helvetica,sans-Serif" font-size="10.00">ostream</text>
</g>
<!-- Node8&#45;&gt;Node10 -->
<g id="edge20" class="edge"><title>Node8&#45;&gt;Node10</title>
<path fill="none" stroke="midnightblue" d="M709.947,-116.362C705.528,-108.595 699.41,-97.8426 694.121,-88.5458"/>
<polygon fill="midnightblue" stroke="midnightblue" points="697.002,-86.5315 689.014,-79.5707 690.918,-89.9932 697.002,-86.5315"/>
</g>
<!-- Node12 -->
<g id="node24" class="node"><title>Node12</title>
<a xlink:href="string_8h.html" target="_top" xlink:title="base/std_ext/string.h">
<polygon fill="white" stroke="black" points="198,-58.5 198,-79.5 306,-79.5 306,-58.5 198,-58.5"/>
<text text-anchor="middle" x="252" y="-66.5" font-family="Helvetica,sans-Serif" font-size="10.00">base/std_ext/string.h</text>
</a>
</g>
<!-- Node11&#45;&gt;Node12 -->
<g id="edge24" class="edge"><title>Node11&#45;&gt;Node12</title>
<path fill="none" stroke="midnightblue" d="M252,-116.362C252,-108.922 252,-98.7427 252,-89.7276"/>
<polygon fill="midnightblue" stroke="midnightblue" points="255.5,-89.5706 252,-79.5707 248.5,-89.5707 255.5,-89.5706"/>
</g>
<!-- Node15 -->
<g id="node31" class="node"><title>Node15</title>
<polygon fill="white" stroke="#bfbfbf" points="134,-58.5 134,-79.5 180,-79.5 180,-58.5 134,-58.5"/>
<text text-anchor="middle" x="157" y="-66.5" font-family="Helvetica,sans-Serif" font-size="10.00">cstring</text>
</g>
<!-- Node11&#45;&gt;Node15 -->
<g id="edge32" class="edge"><title>Node11&#45;&gt;Node15</title>
<path fill="none" stroke="midnightblue" d="M234.576,-116.362C220.113,-107.532 199.331,-94.844 182.916,-84.8224"/>
<polygon fill="midnightblue" stroke="midnightblue" points="184.673,-81.7943 174.314,-79.5707 181.025,-87.7688 184.673,-81.7943"/>
</g>
<!-- Node11&#45;&gt;Node16 -->
<g id="edge34" class="edge"><title>Node11&#45;&gt;Node16</title>
<path fill="none" stroke="midnightblue" d="M290.935,-116.497C332.635,-105.247 397.959,-87.6249 436.218,-77.3041"/>
<polygon fill="midnightblue" stroke="midnightblue" points="437.505,-80.5819 446.248,-74.5981 435.682,-73.8235 437.505,-80.5819"/>
</g>
<!-- Node12&#45;&gt;Node2 -->
<g id="edge26" class="edge"><title>Node12&#45;&gt;Node2</title>
<path fill="none" stroke="midnightblue" d="M221.939,-58.4966C192.055,-48.0555 146.459,-32.1241 116.443,-21.6366"/>
<polygon fill="midnightblue" stroke="midnightblue" points="117.501,-18.2988 106.906,-18.3044 115.192,-24.9071 117.501,-18.2988"/>
</g>
<!-- Node13 -->
<g id="node27" class="node"><title>Node13</title>
<polygon fill="white" stroke="#bfbfbf" points="190,-0.5 190,-21.5 242,-21.5 242,-0.5 190,-0.5"/>
<text text-anchor="middle" x="216" y="-8.5" font-family="Helvetica,sans-Serif" font-size="10.00">sstream</text>
</g>
<!-- Node12&#45;&gt;Node13 -->
<g id="edge28" class="edge"><title>Node12&#45;&gt;Node13</title>
<path fill="none" stroke="midnightblue" d="M245.397,-58.3619C240.525,-50.5131 233.762,-39.6159 227.95,-30.2527"/>
<polygon fill="midnightblue" stroke="midnightblue" points="230.809,-28.2213 222.561,-21.5707 224.861,-31.9129 230.809,-28.2213"/>
</g>
<!-- Node14 -->
<g id="node29" class="node"><title>Node14</title>
<polygon fill="white" stroke="#bfbfbf" points="260,-0.5 260,-21.5 316,-21.5 316,-0.5 260,-0.5"/>
<text text-anchor="middle" x="288" y="-8.5" font-family="Helvetica,sans-Serif" font-size="10.00">algorithm</text>
</g>
<!-- Node12&#45;&gt;Node14 -->
<g id="edge30" class="edge"><title>Node12&#45;&gt;Node14</title>
<path fill="none" stroke="midnightblue" d="M258.603,-58.3619C263.475,-50.5131 270.238,-39.6159 276.05,-30.2527"/>
<polygon fill="midnightblue" stroke="midnightblue" points="279.139,-31.9129 281.439,-21.5707 273.191,-28.2213 279.139,-31.9129"/>
</g>
<!-- Node22&#45;&gt;Node2 -->
<g id="edge54" class="edge"><title>Node22&#45;&gt;Node2</title>
<path fill="none" stroke="midnightblue" d="M68.1599,-174.377C71.2266,-146.293 79.5931,-69.6735 83.6848,-32.2027"/>
<polygon fill="midnightblue" stroke="midnightblue" points="87.2005,-32.2486 84.8067,-21.9277 80.2418,-31.4887 87.2005,-32.2486"/>
</g>
</g>
</svg>
