<?xml version="1.0" encoding="UTF-8" standalone="no"?>
<!DOCTYPE svg PUBLIC "-//W3C//DTD SVG 1.1//EN"
 "http://www.w3.org/Graphics/SVG/1.1/DTD/svg11.dtd">
<!-- Generated by graphviz version 2.26.3 (20100126.1600)
 -->
<!-- Title: src/tree/TCalibrationData.h Pages: 1 -->
<svg width="1630pt" height="376pt"
 viewBox="0.00 0.00 1630.00 376.00" xmlns="http://www.w3.org/2000/svg" xmlns:xlink="http://www.w3.org/1999/xlink">
<g id="graph1" class="graph" transform="scale(1 1) rotate(0) translate(4 372)">
<title>src/tree/TCalibrationData.h</title>
<polygon fill="white" stroke="white" points="-4,5 -4,-372 1627,-372 1627,5 -4,5"/>
<!-- Node1 -->
<g id="node1" class="node"><title>Node1</title>
<polygon fill="#bfbfbf" stroke="black" points="1287,-346.5 1287,-367.5 1421,-367.5 1421,-346.5 1287,-346.5"/>
<text text-anchor="middle" x="1354" y="-354.5" font-family="Helvetica,sans-Serif" font-size="10.00">src/tree/TCalibrationData.h</text>
</g>
<!-- Node2 -->
<g id="node3" class="node"><title>Node2</title>
<a xlink:href="_data_base_8h.html" target="_top" xlink:title="src/calibration/DataBase.h">
<polygon fill="white" stroke="black" points="1041,-281.5 1041,-302.5 1173,-302.5 1173,-281.5 1041,-281.5"/>
<text text-anchor="middle" x="1107" y="-289.5" font-family="Helvetica,sans-Serif" font-size="10.00">src/calibration/DataBase.h</text>
</a>
</g>
<!-- Node1&#45;&gt;Node2 -->
<g id="edge2" class="edge"><title>Node1&#45;&gt;Node2</title>
<path fill="none" stroke="midnightblue" d="M1304.21,-343.899C1257.89,-331.708 1189.75,-313.775 1146.9,-302.501"/>
<polygon fill="midnightblue" stroke="midnightblue" points="1303.48,-347.324 1314.04,-346.484 1305.26,-340.555 1303.48,-347.324"/>
</g>
<!-- Node4 -->
<g id="node7" class="node"><title>Node4</title>
<a xlink:href="_data_manager_8h.html" target="_top" xlink:title="src/calibration/DataManager.h">
<polygon fill="white" stroke="black" points="1033.5,-216.5 1033.5,-237.5 1180.5,-237.5 1180.5,-216.5 1033.5,-216.5"/>
<text text-anchor="middle" x="1107" y="-224.5" font-family="Helvetica,sans-Serif" font-size="10.00">src/calibration/DataManager.h</text>
</a>
</g>
<!-- Node1&#45;&gt;Node4 -->
<g id="edge50" class="edge"><title>Node1&#45;&gt;Node4</title>
<path fill="none" stroke="midnightblue" d="M1324.64,-341.548C1273.82,-314.798 1170.71,-260.529 1127.15,-237.603"/>
<polygon fill="midnightblue" stroke="midnightblue" points="1323.31,-344.801 1333.79,-346.362 1326.57,-338.607 1323.31,-344.801"/>
</g>
<!-- Node7 -->
<g id="node13" class="node"><title>Node7</title>
<a xlink:href="_editor_8cc.html" target="_top" xlink:title="src/calibration/Editor.cc">
<polygon fill="white" stroke="black" points="738.5,-79.5 738.5,-100.5 857.5,-100.5 857.5,-79.5 738.5,-79.5"/>
<text text-anchor="middle" x="798" y="-87.5" font-family="Helvetica,sans-Serif" font-size="10.00">src/calibration/Editor.cc</text>
</a>
</g>
<!-- Node1&#45;&gt;Node7 -->
<g id="edge52" class="edge"><title>Node1&#45;&gt;Node7</title>
<path fill="none" stroke="midnightblue" d="M1276.64,-351.028C1101.44,-335.687 683.307,-288.249 603,-180 593.467,-167.15 593.313,-156.734 603,-144 607.692,-137.832 698.607,-114.5 754.621,-100.604"/>
<polygon fill="midnightblue" stroke="midnightblue" points="1276.55,-354.533 1286.82,-351.906 1277.15,-347.559 1276.55,-354.533"/>
</g>
<!-- Node15 -->
<g id="node30" class="node"><title>Node15</title>
<a xlink:href="_time_8cc.html" target="_top" xlink:title="src/calibration/modules\l/Time.cc">
<polygon fill="white" stroke="black" points="1315.5,-145 1315.5,-179 1432.5,-179 1432.5,-145 1315.5,-145"/>
<text text-anchor="start" x="1323.5" y="-166" font-family="Helvetica,sans-Serif" font-size="10.00">src/calibration/modules</text>
<text text-anchor="middle" x="1374" y="-153" font-family="Helvetica,sans-Serif" font-size="10.00">/Time.cc</text>
</a>
</g>
<!-- Node1&#45;&gt;Node15 -->
<g id="edge54" class="edge"><title>Node1&#45;&gt;Node15</title>
<path fill="none" stroke="midnightblue" d="M1356.14,-336.115C1360.12,-297.327 1368.58,-214.866 1372.24,-179.12"/>
<polygon fill="midnightblue" stroke="midnightblue" points="1352.64,-335.933 1355.1,-346.238 1359.61,-336.648 1352.64,-335.933"/>
</g>
<!-- Node24 -->
<g id="node48" class="node"><title>Node24</title>
<a xlink:href="_test_data_manager_8cc.html" target="_top" xlink:title="test/calibration/TestData\lManager.cc">
<polygon fill="white" stroke="black" points="1450,-145 1450,-179 1574,-179 1574,-145 1450,-145"/>
<text text-anchor="start" x="1458" y="-166" font-family="Helvetica,sans-Serif" font-size="10.00">test/calibration/TestData</text>
<text text-anchor="middle" x="1512" y="-153" font-family="Helvetica,sans-Serif" font-size="10.00">Manager.cc</text>
</a>
</g>
<!-- Node1&#45;&gt;Node24 -->
<g id="edge60" class="edge"><title>Node1&#45;&gt;Node24</title>
<path fill="none" stroke="midnightblue" d="M1364.91,-337.202C1374.78,-319.913 1390.16,-294.457 1406,-274 1433.86,-238.011 1471.46,-200.43 1493.58,-179.242"/>
<polygon fill="midnightblue" stroke="midnightblue" points="1361.63,-335.906 1359.77,-346.338 1367.73,-339.338 1361.63,-335.906"/>
</g>
<!-- Node25 -->
<g id="node53" class="node"><title>Node25</title>
<a xlink:href="_t_calibration_editor_8h.html" target="_top" xlink:title="src/rint/TCalibrationEditor.h">
<polygon fill="white" stroke="black" points="1486,-216.5 1486,-237.5 1622,-237.5 1622,-216.5 1486,-216.5"/>
<text text-anchor="middle" x="1554" y="-224.5" font-family="Helvetica,sans-Serif" font-size="10.00">src/rint/TCalibrationEditor.h</text>
</a>
</g>
<!-- Node1&#45;&gt;Node25 -->
<g id="edge56" class="edge"><title>Node1&#45;&gt;Node25</title>
<path fill="none" stroke="midnightblue" d="M1373.29,-339.605C1398.62,-316.843 1440.84,-279.221 1449,-274 1472.88,-258.708 1502.58,-245.92 1524.29,-237.563"/>
<polygon fill="midnightblue" stroke="midnightblue" points="1370.81,-337.122 1365.72,-346.413 1375.49,-342.325 1370.81,-337.122"/>
</g>
<!-- Node26 -->
<g id="node57" class="node"><title>Node26</title>
<a xlink:href="_test_t_calibration_data_8cc.html" target="_top" xlink:title="test/tree/TestTCalibration\lData.cc">
<polygon fill="white" stroke="black" points="1458,-275 1458,-309 1586,-309 1586,-275 1458,-275"/>
<text text-anchor="start" x="1466" y="-296" font-family="Helvetica,sans-Serif" font-size="10.00">test/tree/TestTCalibration</text>
<text text-anchor="middle" x="1522" y="-283" font-family="Helvetica,sans-Serif" font-size="10.00">Data.cc</text>
</a>
</g>
<!-- Node1&#45;&gt;Node26 -->
<g id="edge62" class="edge"><title>Node1&#45;&gt;Node26</title>
<path fill="none" stroke="midnightblue" d="M1390.74,-342.786C1416.39,-332.859 1450.77,-319.56 1477.91,-309.06"/>
<polygon fill="midnightblue" stroke="midnightblue" points="1389.43,-339.539 1381.37,-346.412 1391.96,-346.068 1389.43,-339.539"/>
</g>
<!-- Node3 -->
<g id="node5" class="node"><title>Node3</title>
<a xlink:href="_data_base_8cc.html" target="_top" xlink:title="src/calibration/DataBase.cc">
<polygon fill="white" stroke="black" points="879.5,-216.5 879.5,-237.5 1016.5,-237.5 1016.5,-216.5 879.5,-216.5"/>
<text text-anchor="middle" x="948" y="-224.5" font-family="Helvetica,sans-Serif" font-size="10.00">src/calibration/DataBase.cc</text>
</a>
</g>
<!-- Node2&#45;&gt;Node3 -->
<g id="edge4" class="edge"><title>Node2&#45;&gt;Node3</title>
<path fill="none" stroke="midnightblue" d="M1071.56,-277.511C1041.96,-265.41 1000.45,-248.441 973.889,-237.584"/>
<polygon fill="midnightblue" stroke="midnightblue" points="1070.52,-280.868 1081.1,-281.412 1073.17,-274.388 1070.52,-280.868"/>
</g>
<!-- Node2&#45;&gt;Node4 -->
<g id="edge6" class="edge"><title>Node2&#45;&gt;Node4</title>
<path fill="none" stroke="midnightblue" d="M1107,-271.014C1107,-259.831 1107,-246.558 1107,-237.534"/>
<polygon fill="midnightblue" stroke="midnightblue" points="1103.5,-271.267 1107,-281.267 1110.5,-271.267 1103.5,-271.267"/>
</g>
<!-- Node5 -->
<g id="node9" class="node"><title>Node5</title>
<a xlink:href="_data_manager_8cc.html" target="_top" xlink:title="src/calibration/DataManager.cc">
<polygon fill="white" stroke="black" points="1012,-151.5 1012,-172.5 1164,-172.5 1164,-151.5 1012,-151.5"/>
<text text-anchor="middle" x="1088" y="-159.5" font-family="Helvetica,sans-Serif" font-size="10.00">src/calibration/DataManager.cc</text>
</a>
</g>
<!-- Node4&#45;&gt;Node5 -->
<g id="edge8" class="edge"><title>Node4&#45;&gt;Node5</title>
<path fill="none" stroke="midnightblue" d="M1100.97,-206.363C1097.68,-195.108 1093.74,-181.652 1091.08,-172.534"/>
<polygon fill="midnightblue" stroke="midnightblue" points="1097.7,-207.65 1103.86,-216.267 1104.42,-205.686 1097.7,-207.65"/>
</g>
<!-- Node6 -->
<g id="node11" class="node"><title>Node6</title>
<a xlink:href="_editor_8h.html" target="_top" xlink:title="src/calibration/Editor.h">
<polygon fill="white" stroke="black" points="880,-151.5 880,-172.5 994,-172.5 994,-151.5 880,-151.5"/>
<text text-anchor="middle" x="937" y="-159.5" font-family="Helvetica,sans-Serif" font-size="10.00">src/calibration/Editor.h</text>
</a>
</g>
<!-- Node4&#45;&gt;Node6 -->
<g id="edge10" class="edge"><title>Node4&#45;&gt;Node6</title>
<path fill="none" stroke="midnightblue" d="M1069.93,-212.825C1038.23,-200.706 993.324,-183.536 964.68,-172.584"/>
<polygon fill="midnightblue" stroke="midnightblue" points="1068.72,-216.11 1079.31,-216.412 1071.22,-209.571 1068.72,-216.11"/>
</g>
<!-- Node12 -->
<g id="node24" class="node"><title>Node12</title>
<a xlink:href="_c_b___time_walk_8cc.html" target="_top" xlink:title="src/calibration/modules\l/CB_TimeWalk.cc">
<polygon fill="white" stroke="black" points="1181.5,-145 1181.5,-179 1298.5,-179 1298.5,-145 1181.5,-145"/>
<text text-anchor="start" x="1189.5" y="-166" font-family="Helvetica,sans-Serif" font-size="10.00">src/calibration/modules</text>
<text text-anchor="middle" x="1240" y="-153" font-family="Helvetica,sans-Serif" font-size="10.00">/CB_TimeWalk.cc</text>
</a>
</g>
<!-- Node4&#45;&gt;Node12 -->
<g id="edge24" class="edge"><title>Node4&#45;&gt;Node12</title>
<path fill="none" stroke="midnightblue" d="M1137.71,-211.992C1157.83,-202.158 1184.18,-189.282 1205.09,-179.06"/>
<polygon fill="midnightblue" stroke="midnightblue" points="1136.11,-208.876 1128.66,-216.412 1139.19,-215.166 1136.11,-208.876"/>
</g>
<!-- Node13 -->
<g id="node26" class="node"><title>Node13</title>
<a xlink:href="_energy_8cc.html" target="_top" xlink:title="src/calibration/modules\l/Energy.cc">
<polygon fill="white" stroke="black" points="611.5,-145 611.5,-179 728.5,-179 728.5,-145 611.5,-145"/>
<text text-anchor="start" x="619.5" y="-166" font-family="Helvetica,sans-Serif" font-size="10.00">src/calibration/modules</text>
<text text-anchor="middle" x="670" y="-153" font-family="Helvetica,sans-Serif" font-size="10.00">/Energy.cc</text>
</a>
</g>
<!-- Node4&#45;&gt;Node13 -->
<g id="edge26" class="edge"><title>Node4&#45;&gt;Node13</title>
<path fill="none" stroke="midnightblue" d="M1023.07,-215.774C895.313,-199.678 860.377,-204.164 737,-180 734.281,-179.468 731.511,-178.885 728.719,-178.267"/>
<polygon fill="midnightblue" stroke="midnightblue" points="1022.88,-219.278 1033.25,-217.074 1023.77,-212.335 1022.88,-219.278"/>
</g>
<!-- Node14 -->
<g id="node28" class="node"><title>Node14</title>
<a xlink:href="_p_i_d___phi_angle_8cc.html" target="_top" xlink:title="src/calibration/modules\l/PID_PhiAngle.cc">
<polygon fill="white" stroke="black" points="745.5,-145 745.5,-179 862.5,-179 862.5,-145 745.5,-145"/>
<text text-anchor="start" x="753.5" y="-166" font-family="Helvetica,sans-Serif" font-size="10.00">src/calibration/modules</text>
<text text-anchor="middle" x="804" y="-153" font-family="Helvetica,sans-Serif" font-size="10.00">/PID_PhiAngle.cc</text>
</a>
</g>
<!-- Node4&#45;&gt;Node14 -->
<g id="edge28" class="edge"><title>Node4&#45;&gt;Node14</title>
<path fill="none" stroke="midnightblue" d="M1038.46,-214.586C991.224,-205.728 927.092,-193.105 871,-180 868.302,-179.37 865.549,-178.707 862.771,-178.024"/>
<polygon fill="midnightblue" stroke="midnightblue" points="1038.11,-218.08 1048.58,-216.474 1039.39,-211.199 1038.11,-218.08"/>
</g>
<!-- Node4&#45;&gt;Node15 -->
<g id="edge30" class="edge"><title>Node4&#45;&gt;Node15</title>
<path fill="none" stroke="midnightblue" d="M1163.44,-214.238C1203.57,-205.043 1258.69,-192.162 1307,-180 1309.69,-179.324 1312.43,-178.624 1315.2,-177.909"/>
<polygon fill="midnightblue" stroke="midnightblue" points="1162.54,-210.853 1153.58,-216.494 1164.1,-217.677 1162.54,-210.853"/>
</g>
<!-- Node16 -->
<g id="node32" class="node"><title>Node16</title>
<a xlink:href="_setup_8h.html" target="_top" xlink:title="src/expconfig/setups\l/Setup.h">
<polygon fill="white" stroke="black" points="449.5,-145 449.5,-179 556.5,-179 556.5,-145 449.5,-145"/>
<text text-anchor="start" x="457.5" y="-166" font-family="Helvetica,sans-Serif" font-size="10.00">src/expconfig/setups</text>
<text text-anchor="middle" x="503" y="-153" font-family="Helvetica,sans-Serif" font-size="10.00">/Setup.h</text>
</a>
</g>
<!-- Node4&#45;&gt;Node16 -->
<g id="edge32" class="edge"><title>Node4&#45;&gt;Node16</title>
<path fill="none" stroke="midnightblue" d="M1023.09,-215.834C836.145,-195.794 786.329,-204.266 603,-180 587.873,-177.998 571.552,-175.294 556.57,-172.59"/>
<polygon fill="midnightblue" stroke="midnightblue" points="1022.94,-219.338 1033.26,-216.938 1023.7,-212.379 1022.94,-219.338"/>
</g>
<!-- Node4&#45;&gt;Node24 -->
<g id="edge48" class="edge"><title>Node4&#45;&gt;Node24</title>
<path fill="none" stroke="midnightblue" d="M1190.88,-217.753C1258.69,-209.666 1356.42,-196.621 1441,-180 1443.87,-179.436 1446.8,-178.828 1449.75,-178.189"/>
<polygon fill="midnightblue" stroke="midnightblue" points="1190.2,-214.309 1180.68,-218.96 1191.03,-221.261 1190.2,-214.309"/>
</g>
<!-- Node6&#45;&gt;Node7 -->
<g id="edge12" class="edge"><title>Node6&#45;&gt;Node7</title>
<path fill="none" stroke="midnightblue" d="M907.585,-146.763C880.866,-132.924 842.139,-112.863 818.594,-100.667"/>
<polygon fill="midnightblue" stroke="midnightblue" points="906.001,-149.884 916.49,-151.376 909.22,-143.669 906.001,-149.884"/>
</g>
<!-- Node8 -->
<g id="node15" class="node"><title>Node8</title>
<a xlink:href="_a_c_e_canvas_8h.html" target="_top" xlink:title="src/calibration/gui\l/ACECanvas.h">
<polygon fill="white" stroke="black" points="877.5,-73 877.5,-107 970.5,-107 970.5,-73 877.5,-73"/>
<text text-anchor="start" x="885.5" y="-94" font-family="Helvetica,sans-Serif" font-size="10.00">src/calibration/gui</text>
<text text-anchor="middle" x="924" y="-81" font-family="Helvetica,sans-Serif" font-size="10.00">/ACECanvas.h</text>
</a>
</g>
<!-- Node6&#45;&gt;Node8 -->
<g id="edge14" class="edge"><title>Node6&#45;&gt;Node8</title>
<path fill="none" stroke="midnightblue" d="M933.294,-141.472C931.331,-130.6 928.948,-117.404 927.086,-107.094"/>
<polygon fill="midnightblue" stroke="midnightblue" points="929.861,-142.157 935.082,-151.376 936.749,-140.913 929.861,-142.157"/>
</g>
<!-- Node10 -->
<g id="node19" class="node"><title>Node10</title>
<a xlink:href="_a_c_e_canvas_8cc.html" target="_top" xlink:title="src/calibration/gui\l/ACECanvas.cc">
<polygon fill="white" stroke="black" points="951.5,-1 951.5,-35 1044.5,-35 1044.5,-1 951.5,-1"/>
<text text-anchor="start" x="959.5" y="-22" font-family="Helvetica,sans-Serif" font-size="10.00">src/calibration/gui</text>
<text text-anchor="middle" x="998" y="-9" font-family="Helvetica,sans-Serif" font-size="10.00">/ACECanvas.cc</text>
</a>
</g>
<!-- Node6&#45;&gt;Node10 -->
<g id="edge20" class="edge"><title>Node6&#45;&gt;Node10</title>
<path fill="none" stroke="midnightblue" d="M954.488,-143.876C963.095,-133.997 972.906,-121.13 979,-108 990.026,-84.2443 994.723,-53.9895 996.674,-35.312"/>
<polygon fill="midnightblue" stroke="midnightblue" points="951.778,-141.654 947.649,-151.411 956.961,-146.358 951.778,-141.654"/>
</g>
<!-- Node11 -->
<g id="node22" class="node"><title>Node11</title>
<a xlink:href="_t_calibration_editor_8cc.html" target="_top" xlink:title="src/rint/TCalibrationEditor.cc">
<polygon fill="white" stroke="black" points="1278.5,-79.5 1278.5,-100.5 1419.5,-100.5 1419.5,-79.5 1278.5,-79.5"/>
<text text-anchor="middle" x="1349" y="-87.5" font-family="Helvetica,sans-Serif" font-size="10.00">src/rint/TCalibrationEditor.cc</text>
</a>
</g>
<!-- Node6&#45;&gt;Node11 -->
<g id="edge22" class="edge"><title>Node6&#45;&gt;Node11</title>
<path fill="none" stroke="midnightblue" d="M982.601,-148.855C989.409,-147.098 996.367,-145.417 1003,-144 1097.53,-123.798 1208.11,-107.86 1278.33,-98.6821"/>
<polygon fill="midnightblue" stroke="midnightblue" points="981.556,-145.511 972.789,-151.459 983.352,-152.276 981.556,-145.511"/>
</g>
<!-- Node9 -->
<g id="node17" class="node"><title>Node9</title>
<a xlink:href="_ant-calib-editor_8cc.html" target="_top" xlink:title="progs/Ant&#45;calib&#45;editor.cc">
<polygon fill="white" stroke="black" points="812,-7.5 812,-28.5 934,-28.5 934,-7.5 812,-7.5"/>
<text text-anchor="middle" x="873" y="-15.5" font-family="Helvetica,sans-Serif" font-size="10.00">progs/Ant&#45;calib&#45;editor.cc</text>
</a>
</g>
<!-- Node8&#45;&gt;Node9 -->
<g id="edge16" class="edge"><title>Node8&#45;&gt;Node9</title>
<path fill="none" stroke="midnightblue" d="M905.905,-64.4548C897.265,-52.2566 887.383,-38.3048 880.722,-28.901"/>
<polygon fill="midnightblue" stroke="midnightblue" points="903.277,-66.7998 911.914,-72.937 908.99,-62.7537 903.277,-66.7998"/>
</g>
<!-- Node8&#45;&gt;Node10 -->
<g id="edge18" class="edge"><title>Node8&#45;&gt;Node10</title>
<path fill="none" stroke="midnightblue" d="M948.761,-65.9083C959.105,-55.8438 970.887,-44.3799 980.332,-35.19"/>
<polygon fill="midnightblue" stroke="midnightblue" points="946.264,-63.4549 941.537,-72.937 951.145,-68.472 946.264,-63.4549"/>
</g>
<!-- Node17 -->
<g id="node34" class="node"><title>Node17</title>
<a xlink:href="_exp_config_8cc.html" target="_top" xlink:title="src/expconfig/ExpConfig.cc">
<polygon fill="white" stroke="black" points="577.5,-79.5 577.5,-100.5 714.5,-100.5 714.5,-79.5 577.5,-79.5"/>
<text text-anchor="middle" x="646" y="-87.5" font-family="Helvetica,sans-Serif" font-size="10.00">src/expconfig/ExpConfig.cc</text>
</a>
</g>
<!-- Node16&#45;&gt;Node17 -->
<g id="edge34" class="edge"><title>Node16&#45;&gt;Node17</title>
<path fill="none" stroke="midnightblue" d="M545.824,-140.438C571.885,-127.317 604.038,-111.128 624.772,-100.688"/>
<polygon fill="midnightblue" stroke="midnightblue" points="544.247,-137.314 536.889,-144.937 547.395,-143.566 544.247,-137.314"/>
</g>
<!-- Node18 -->
<g id="node36" class="node"><title>Node18</title>
<a xlink:href="_setup__2014___e_p_t_8h.html" target="_top" xlink:title="src/expconfig/setups\l/Setup_2014_EPT.h">
<polygon fill="white" stroke="black" points="189.5,-73 189.5,-107 296.5,-107 296.5,-73 189.5,-73"/>
<text text-anchor="start" x="197.5" y="-94" font-family="Helvetica,sans-Serif" font-size="10.00">src/expconfig/setups</text>
<text text-anchor="middle" x="243" y="-81" font-family="Helvetica,sans-Serif" font-size="10.00">/Setup_2014_EPT.h</text>
</a>
</g>
<!-- Node16&#45;&gt;Node18 -->
<g id="edge36" class="edge"><title>Node16&#45;&gt;Node18</title>
<path fill="none" stroke="midnightblue" d="M439.038,-144.839C400.221,-134.355 349.707,-120.585 305,-108 302.303,-107.241 299.541,-106.458 296.753,-105.664"/>
<polygon fill="midnightblue" stroke="midnightblue" points="438.584,-148.342 449.151,-147.568 440.408,-141.584 438.584,-148.342"/>
</g>
<!-- Node22 -->
<g id="node44" class="node"><title>Node22</title>
<a xlink:href="_setup__2015__dummy_8cc.html" target="_top" xlink:title="src/expconfig/setups\l/Setup_2015_dummy.cc">
<polygon fill="white" stroke="black" points="314,-73 314,-107 436,-107 436,-73 314,-73"/>
<text text-anchor="start" x="322" y="-94" font-family="Helvetica,sans-Serif" font-size="10.00">src/expconfig/setups</text>
<text text-anchor="middle" x="375" y="-81" font-family="Helvetica,sans-Serif" font-size="10.00">/Setup_2015_dummy.cc</text>
</a>
</g>
<!-- Node16&#45;&gt;Node22 -->
<g id="edge44" class="edge"><title>Node16&#45;&gt;Node22</title>
<path fill="none" stroke="midnightblue" d="M463.782,-139.94C445.067,-129.413 423.008,-117.004 405.56,-107.19"/>
<polygon fill="midnightblue" stroke="midnightblue" points="462.234,-143.085 472.666,-144.937 465.666,-136.984 462.234,-143.085"/>
</g>
<!-- Node23 -->
<g id="node46" class="node"><title>Node23</title>
<a xlink:href="_setup_registry_8cc.html" target="_top" xlink:title="src/expconfig/setups\l/SetupRegistry.cc">
<polygon fill="white" stroke="black" points="453.5,-73 453.5,-107 560.5,-107 560.5,-73 453.5,-73"/>
<text text-anchor="start" x="461.5" y="-94" font-family="Helvetica,sans-Serif" font-size="10.00">src/expconfig/setups</text>
<text text-anchor="middle" x="507" y="-81" font-family="Helvetica,sans-Serif" font-size="10.00">/SetupRegistry.cc</text>
</a>
</g>
<!-- Node16&#45;&gt;Node23 -->
<g id="edge46" class="edge"><title>Node16&#45;&gt;Node23</title>
<path fill="none" stroke="midnightblue" d="M504.516,-134.719C505.024,-125.572 505.576,-115.625 506.031,-107.441"/>
<polygon fill="midnightblue" stroke="midnightblue" points="501.008,-134.758 503.948,-144.937 507.997,-135.147 501.008,-134.758"/>
</g>
<!-- Node19 -->
<g id="node38" class="node"><title>Node19</title>
<a xlink:href="_setup__2014__07___e_p_t___prod_8cc.html" target="_top" xlink:title="src/expconfig/setups\l/Setup_2014_07_EPT_Prod.cc">
<polygon fill="white" stroke="black" points="-0.5,-1 -0.5,-35 150.5,-35 150.5,-1 -0.5,-1"/>
<text text-anchor="start" x="7.5" y="-22" font-family="Helvetica,sans-Serif" font-size="10.00">src/expconfig/setups</text>
<text text-anchor="middle" x="75" y="-9" font-family="Helvetica,sans-Serif" font-size="10.00">/Setup_2014_07_EPT_Prod.cc</text>
</a>
</g>
<!-- Node18&#45;&gt;Node19 -->
<g id="edge38" class="edge"><title>Node18&#45;&gt;Node19</title>
<path fill="none" stroke="midnightblue" d="M193.822,-68.9238C168.68,-58.1485 138.48,-45.2059 114.819,-35.0651"/>
<polygon fill="midnightblue" stroke="midnightblue" points="192.616,-72.2148 203.186,-72.937 195.374,-65.7807 192.616,-72.2148"/>
</g>
<!-- Node20 -->
<g id="node40" class="node"><title>Node20</title>
<a xlink:href="_setup__2014__10___e_p_t___prod_8cc.html" target="_top" xlink:title="src/expconfig/setups\l/Setup_2014_10_EPT_Prod.cc">
<polygon fill="white" stroke="black" points="167.5,-1 167.5,-35 318.5,-35 318.5,-1 167.5,-1"/>
<text text-anchor="start" x="175.5" y="-22" font-family="Helvetica,sans-Serif" font-size="10.00">src/expconfig/setups</text>
<text text-anchor="middle" x="243" y="-9" font-family="Helvetica,sans-Serif" font-size="10.00">/Setup_2014_10_EPT_Prod.cc</text>
</a>
</g>
<!-- Node18&#45;&gt;Node20 -->
<g id="edge40" class="edge"><title>Node18&#45;&gt;Node20</title>
<path fill="none" stroke="midnightblue" d="M243,-62.7193C243,-53.572 243,-43.6255 243,-35.4407"/>
<polygon fill="midnightblue" stroke="midnightblue" points="239.5,-62.937 243,-72.937 246.5,-62.937 239.5,-62.937"/>
</g>
<!-- Node21 -->
<g id="node42" class="node"><title>Node21</title>
<a xlink:href="_setup__2014__12___e_p_t___prod_8cc.html" target="_top" xlink:title="src/expconfig/setups\l/Setup_2014_12_EPT_Prod.cc">
<polygon fill="white" stroke="black" points="335.5,-1 335.5,-35 486.5,-35 486.5,-1 335.5,-1"/>
<text text-anchor="start" x="343.5" y="-22" font-family="Helvetica,sans-Serif" font-size="10.00">src/expconfig/setups</text>
<text text-anchor="middle" x="411" y="-9" font-family="Helvetica,sans-Serif" font-size="10.00">/Setup_2014_12_EPT_Prod.cc</text>
</a>
</g>
<!-- Node18&#45;&gt;Node21 -->
<g id="edge42" class="edge"><title>Node18&#45;&gt;Node21</title>
<path fill="none" stroke="midnightblue" d="M292.178,-68.9238C317.32,-58.1485 347.52,-45.2059 371.181,-35.0651"/>
<polygon fill="midnightblue" stroke="midnightblue" points="290.626,-65.7807 282.814,-72.937 293.384,-72.2148 290.626,-65.7807"/>
</g>
<!-- Node25&#45;&gt;Node11 -->
<g id="edge58" class="edge"><title>Node25&#45;&gt;Node11</title>
<path fill="none" stroke="midnightblue" d="M1569.85,-208.457C1583.27,-190.406 1598.11,-162.991 1583,-144 1562.82,-118.632 1480.82,-104.158 1419.54,-96.7037"/>
<polygon fill="midnightblue" stroke="midnightblue" points="1566.96,-206.469 1563.51,-216.488 1572.45,-210.804 1566.96,-206.469"/>
</g>
</g>
</svg>
