<?xml version="1.0" encoding="UTF-8" standalone="no"?>
<!DOCTYPE svg PUBLIC "-//W3C//DTD SVG 1.1//EN"
 "http://www.w3.org/Graphics/SVG/1.1/DTD/svg11.dtd">
<!-- Generated by graphviz version 2.26.3 (20100126.1600)
 -->
<!-- Title: src Pages: 1 -->
<svg width="284pt" height="508pt"
 viewBox="0.00 0.00 284.00 508.00" xmlns="http://www.w3.org/2000/svg" xmlns:xlink="http://www.w3.org/1999/xlink">
<g id="graph1" class="graph" transform="scale(1 1) rotate(0) translate(4 504)">
<title>src</title>
<polygon fill="white" stroke="white" points="-4,5 -4,-504 281,-504 281,5 -4,5"/>
<g id="graph2" class="cluster"><title>clusterdir_68267d1309a1af8e8297ef4c3efbcdba</title>
<a xlink:href="dir_68267d1309a1af8e8297ef4c3efbcdba.html" target="_top">
<polygon fill="#eeeeff" stroke="black" points="8,-8 8,-492 268,-492 268,-8 8,-8"/>
</a>
</g>
<!-- dir_68267d1309a1af8e8297ef4c3efbcdba -->
<g id="node2" class="node"><title>dir_68267d1309a1af8e8297ef4c3efbcdba</title>
<text text-anchor="middle" x="222" y="-463.5" font-family="Helvetica,sans-Serif" font-size="10.00">src</text>
</g>
<!-- dir_2eec376824a17f48dc36b4bd0c810e01 -->
<g id="node3" class="node"><title>dir_2eec376824a17f48dc36b4bd0c810e01</title>
<a xlink:href="dir_2eec376824a17f48dc36b4bd0c810e01.html" target="_top" xlink:title="analysis">
<polygon fill="white" stroke="red" points="167,-484 113,-484 113,-448 167,-448 167,-484"/>
<text text-anchor="middle" x="140" y="-463.5" font-family="Helvetica,sans-Serif" font-size="10.00">analysis</text>
</a>
</g>
<!-- dir_0af1587c8378955de40f48b4bd1869f0 -->
<g id="node4" class="node"><title>dir_0af1587c8378955de40f48b4bd1869f0</title>
<a xlink:href="dir_0af1587c8378955de40f48b4bd1869f0.html" target="_top" xlink:title="base">
<polygon fill="white" stroke="red" points="163,-52 109,-52 109,-16 163,-16 163,-52"/>
<text text-anchor="middle" x="136" y="-31.5" font-family="Helvetica,sans-Serif" font-size="10.00">base</text>
</a>
</g>
<!-- dir_2eec376824a17f48dc36b4bd0c810e01&#45;&gt;dir_0af1587c8378955de40f48b4bd1869f0 -->
<g id="edge39" class="edge"><title>dir_2eec376824a17f48dc36b4bd0c810e01&#45;&gt;dir_0af1587c8378955de40f48b4bd1869f0</title>
<path fill="none" stroke="black" d="M167.166,-454.182C197.747,-440.627 243.868,-419.331 249,-412 272.08,-379.029 259,-362.246 259,-322 259,-322 259,-322 259,-178 259,-123.82 208.034,-79.7242 171.716,-55.1803"/>
<polygon fill="black" stroke="black" points="173.579,-52.2167 163.298,-49.6592 169.74,-58.0701 173.579,-52.2167"/>
<a xlink:href="dir_000002_000022.html" target="_top" xlink:title="44">
<text text-anchor="middle" x="178.142" y="-49.3137" font-family="Helvetica,sans-Serif" font-size="10.00">44</text>
</a>
</g>
<!-- dir_c4f4646ab0f4a2967be5b6215a500c22 -->
<g id="node6" class="node"><title>dir_c4f4646ab0f4a2967be5b6215a500c22</title>
<a xlink:href="dir_c4f4646ab0f4a2967be5b6215a500c22.html" target="_top" xlink:title="expconfig">
<polygon fill="white" stroke="red" points="128,-412 70,-412 70,-376 128,-376 128,-412"/>
<text text-anchor="middle" x="99" y="-391.5" font-family="Helvetica,sans-Serif" font-size="10.00">expconfig</text>
</a>
</g>
<!-- dir_2eec376824a17f48dc36b4bd0c810e01&#45;&gt;dir_c4f4646ab0f4a2967be5b6215a500c22 -->
<g id="edge45" class="edge"><title>dir_2eec376824a17f48dc36b4bd0c810e01&#45;&gt;dir_c4f4646ab0f4a2967be5b6215a500c22</title>
<path fill="none" stroke="black" d="M129.654,-447.831C125.076,-439.792 119.595,-430.167 114.541,-421.292"/>
<polygon fill="black" stroke="black" points="117.475,-419.371 109.485,-412.413 111.392,-422.835 117.475,-419.371"/>
<a xlink:href="dir_000002_000030.html" target="_top" xlink:title="1">
<text text-anchor="middle" x="121.721" y="-418.59" font-family="Helvetica,sans-Serif" font-size="10.00">1</text>
</a>
</g>
<!-- dir_5eb03804bf445589bf35c6aa84fb9a34 -->
<g id="node7" class="node"><title>dir_5eb03804bf445589bf35c6aa84fb9a34</title>
<a xlink:href="dir_5eb03804bf445589bf35c6aa84fb9a34.html" target="_top" xlink:title="reconstruct">
<polygon fill="white" stroke="red" points="180,-268 116,-268 116,-232 180,-232 180,-268"/>
<text text-anchor="middle" x="148" y="-247.5" font-family="Helvetica,sans-Serif" font-size="10.00">reconstruct</text>
</a>
</g>
<!-- dir_2eec376824a17f48dc36b4bd0c810e01&#45;&gt;dir_5eb03804bf445589bf35c6aa84fb9a34 -->
<g id="edge47" class="edge"><title>dir_2eec376824a17f48dc36b4bd0c810e01&#45;&gt;dir_5eb03804bf445589bf35c6aa84fb9a34</title>
<path fill="none" stroke="black" d="M145.867,-447.737C152.238,-429.06 163.355,-399.529 177,-376 187.169,-358.466 198.422,-359.173 205,-340 210.193,-324.866 211.322,-318.698 205,-304 200.251,-292.959 192.011,-283.118 183.249,-274.959"/>
<polygon fill="black" stroke="black" points="185.339,-272.139 175.489,-268.235 180.755,-277.429 185.339,-272.139"/>
<a xlink:href="dir_000002_000034.html" target="_top" xlink:title="1">
<text text-anchor="middle" x="189.915" y="-269.847" font-family="Helvetica,sans-Serif" font-size="10.00">1</text>
</a>
</g>
<!-- dir_c44c95bf3b41c3321c6014770d618ac8 -->
<g id="node10" class="node"><title>dir_c44c95bf3b41c3321c6014770d618ac8</title>
<a xlink:href="dir_c44c95bf3b41c3321c6014770d618ac8.html" target="_top" xlink:title="tree">
<polygon fill="white" stroke="black" points="130,-196 76,-196 76,-160 130,-160 130,-196"/>
<text text-anchor="middle" x="103" y="-175.5" font-family="Helvetica,sans-Serif" font-size="10.00">tree</text>
</a>
</g>
<!-- dir_2eec376824a17f48dc36b4bd0c810e01&#45;&gt;dir_c44c95bf3b41c3321c6014770d618ac8 -->
<g id="edge41" class="edge"><title>dir_2eec376824a17f48dc36b4bd0c810e01&#45;&gt;dir_c44c95bf3b41c3321c6014770d618ac8</title>
<path fill="none" stroke="black" d="M112.725,-455.456C94.4647,-446.791 71.8557,-432.57 61,-412 25.03,-343.843 63.8741,-250.626 87.5333,-205.163"/>
<polygon fill="black" stroke="black" points="90.6901,-206.682 92.319,-196.213 84.5172,-203.381 90.6901,-206.682"/>
<a xlink:href="dir_000002_000037.html" target="_top" xlink:title="18">
<text text-anchor="middle" x="91.499" y="-208.69" font-family="Helvetica,sans-Serif" font-size="10.00">18</text>
</a>
</g>
<!-- dir_da9e88029a658bab9ad39bb8696ef9bc -->
<g id="node11" class="node"><title>dir_da9e88029a658bab9ad39bb8696ef9bc</title>
<a xlink:href="dir_da9e88029a658bab9ad39bb8696ef9bc.html" target="_top" xlink:title="unpacker">
<polygon fill="white" stroke="red" points="101,-124 45,-124 45,-88 101,-88 101,-124"/>
<text text-anchor="middle" x="73" y="-103.5" font-family="Helvetica,sans-Serif" font-size="10.00">unpacker</text>
</a>
</g>
<!-- dir_2eec376824a17f48dc36b4bd0c810e01&#45;&gt;dir_da9e88029a658bab9ad39bb8696ef9bc -->
<g id="edge43" class="edge"><title>dir_2eec376824a17f48dc36b4bd0c810e01&#45;&gt;dir_da9e88029a658bab9ad39bb8696ef9bc</title>
<path fill="none" stroke="black" d="M112.612,-453.906C87.7128,-442.301 53.7144,-424.71 46,-412 -8.29542,-322.541 36.5041,-190.447 60.3881,-133.632"/>
<polygon fill="black" stroke="black" points="63.6931,-134.806 64.438,-124.238 57.265,-132.035 63.6931,-134.806"/>
<a xlink:href="dir_000002_000040.html" target="_top" xlink:title="1">
<text text-anchor="middle" x="64.8774" y="-136.731" font-family="Helvetica,sans-Serif" font-size="10.00">1</text>
</a>
</g>
<!-- dir_f1b881a94df93d2a183c4d8f47373448 -->
<g id="node5" class="node"><title>dir_f1b881a94df93d2a183c4d8f47373448</title>
<a xlink:href="dir_f1b881a94df93d2a183c4d8f47373448.html" target="_top" xlink:title="calibration">
<polygon fill="white" stroke="red" points="196,-340 136,-340 136,-304 196,-304 196,-340"/>
<text text-anchor="middle" x="166" y="-319.5" font-family="Helvetica,sans-Serif" font-size="10.00">calibration</text>
</a>
</g>
<!-- dir_f1b881a94df93d2a183c4d8f47373448&#45;&gt;dir_2eec376824a17f48dc36b4bd0c810e01 -->
<g id="edge15" class="edge"><title>dir_f1b881a94df93d2a183c4d8f47373448&#45;&gt;dir_2eec376824a17f48dc36b4bd0c810e01</title>
<path fill="none" stroke="black" d="M162.734,-340.09C158.294,-364.681 150.309,-408.905 145.082,-437.853"/>
<polygon fill="black" stroke="black" points="141.626,-437.3 143.293,-447.762 148.514,-438.543 141.626,-437.3"/>
<a xlink:href="dir_000025_000002.html" target="_top" xlink:title="20">
<text text-anchor="middle" x="139.47" y="-430.758" font-family="Helvetica,sans-Serif" font-size="10.00">20</text>
</a>
</g>
<!-- dir_f1b881a94df93d2a183c4d8f47373448&#45;&gt;dir_0af1587c8378955de40f48b4bd1869f0 -->
<g id="edge7" class="edge"><title>dir_f1b881a94df93d2a183c4d8f47373448&#45;&gt;dir_0af1587c8378955de40f48b4bd1869f0</title>
<path fill="none" stroke="black" d="M179.796,-303.577C186.403,-293.604 193.602,-280.743 197,-268 201.122,-252.54 199.382,-247.822 197,-232 187.562,-169.31 162.206,-99.0895 147.323,-61.4223"/>
<polygon fill="black" stroke="black" points="150.57,-60.115 143.604,-52.1328 144.072,-62.7173 150.57,-60.115"/>
<a xlink:href="dir_000025_000022.html" target="_top" xlink:title="49">
<text text-anchor="middle" x="154.542" y="-59.8965" font-family="Helvetica,sans-Serif" font-size="10.00">49</text>
</a>
</g>
<!-- dir_f1b881a94df93d2a183c4d8f47373448&#45;&gt;dir_c4f4646ab0f4a2967be5b6215a500c22 -->
<g id="edge11" class="edge"><title>dir_f1b881a94df93d2a183c4d8f47373448&#45;&gt;dir_c4f4646ab0f4a2967be5b6215a500c22</title>
<path fill="none" stroke="black" d="M154.841,-340.413C147.677,-348.994 138.216,-359.341 129.074,-368.646"/>
<polygon fill="black" stroke="black" points="126.475,-366.295 121.859,-375.831 131.415,-371.254 126.475,-366.295"/>
<a xlink:href="dir_000025_000030.html" target="_top" xlink:title="5">
<text text-anchor="middle" x="127.018" y="-359.246" font-family="Helvetica,sans-Serif" font-size="10.00">5</text>
</a>
</g>
<!-- dir_f1b881a94df93d2a183c4d8f47373448&#45;&gt;dir_5eb03804bf445589bf35c6aa84fb9a34 -->
<g id="edge13" class="edge"><title>dir_f1b881a94df93d2a183c4d8f47373448&#45;&gt;dir_5eb03804bf445589bf35c6aa84fb9a34</title>
<path fill="none" stroke="black" d="M161.458,-303.831C159.512,-296.046 157.193,-286.773 155.034,-278.135"/>
<polygon fill="black" stroke="black" points="158.424,-277.266 152.603,-268.413 151.633,-278.964 158.424,-277.266"/>
<a xlink:href="dir_000025_000034.html" target="_top" xlink:title="4">
<text text-anchor="middle" x="162.05" y="-277.564" font-family="Helvetica,sans-Serif" font-size="10.00">4</text>
</a>
</g>
<!-- dir_f1b881a94df93d2a183c4d8f47373448&#45;&gt;dir_c44c95bf3b41c3321c6014770d618ac8 -->
<g id="edge9" class="edge"><title>dir_f1b881a94df93d2a183c4d8f47373448&#45;&gt;dir_c44c95bf3b41c3321c6014770d618ac8</title>
<path fill="none" stroke="black" d="M178.139,-303.756C189.073,-284.831 201.641,-254.864 189,-232 178.394,-212.818 157.806,-199.531 139.433,-190.938"/>
<polygon fill="black" stroke="black" points="140.657,-187.653 130.091,-186.865 137.859,-194.07 140.657,-187.653"/>
<a xlink:href="dir_000025_000037.html" target="_top" xlink:title="23">
<text text-anchor="middle" x="145.086" y="-183.987" font-family="Helvetica,sans-Serif" font-size="10.00">23</text>
</a>
</g>
<!-- dir_c4f4646ab0f4a2967be5b6215a500c22&#45;&gt;dir_0af1587c8378955de40f48b4bd1869f0 -->
<g id="edge23" class="edge"><title>dir_c4f4646ab0f4a2967be5b6215a500c22&#45;&gt;dir_0af1587c8378955de40f48b4bd1869f0</title>
<path fill="none" stroke="black" d="M87.0906,-375.98C55.9172,-326.342 -21.7936,-184.89 36,-88 49.6471,-65.1208 76.7159,-51.3542 99.2524,-43.4522"/>
<polygon fill="black" stroke="black" points="100.471,-46.7364 108.901,-40.3189 98.3093,-40.0786 100.471,-46.7364"/>
<a xlink:href="dir_000030_000022.html" target="_top" xlink:title="16">
<text text-anchor="middle" x="97.9293" y="-48.047" font-family="Helvetica,sans-Serif" font-size="10.00">16</text>
</a>
</g>
<!-- dir_c4f4646ab0f4a2967be5b6215a500c22&#45;&gt;dir_f1b881a94df93d2a183c4d8f47373448 -->
<g id="edge27" class="edge"><title>dir_c4f4646ab0f4a2967be5b6215a500c22&#45;&gt;dir_f1b881a94df93d2a183c4d8f47373448</title>
<path fill="none" stroke="black" d="M109.955,-375.831C117.13,-367.219 126.662,-356.785 135.876,-347.405"/>
<polygon fill="black" stroke="black" points="138.532,-349.7 143.147,-340.163 133.592,-344.74 138.532,-349.7"/>
<a xlink:href="dir_000030_000025.html" target="_top" xlink:title="18">
<text text-anchor="middle" x="137.989" y="-351.748" font-family="Helvetica,sans-Serif" font-size="10.00">18</text>
</a>
</g>
<!-- dir_c4f4646ab0f4a2967be5b6215a500c22&#45;&gt;dir_5eb03804bf445589bf35c6aa84fb9a34 -->
<g id="edge31" class="edge"><title>dir_c4f4646ab0f4a2967be5b6215a500c22&#45;&gt;dir_5eb03804bf445589bf35c6aa84fb9a34</title>
<path fill="none" stroke="black" d="M97.4121,-375.95C100.583,-357.693 109.361,-328.716 118,-304 121.038,-295.307 124.589,-285.926 128.309,-277.46"/>
<polygon fill="black" stroke="black" points="131.491,-278.917 132.562,-268.377 125.152,-275.949 131.491,-278.917"/>
<a xlink:href="dir_000030_000034.html" target="_top" xlink:title="1">
<text text-anchor="middle" x="132.538" y="-280.877" font-family="Helvetica,sans-Serif" font-size="10.00">1</text>
</a>
</g>
<!-- dir_c4f4646ab0f4a2967be5b6215a500c22&#45;&gt;dir_c44c95bf3b41c3321c6014770d618ac8 -->
<g id="edge25" class="edge"><title>dir_c4f4646ab0f4a2967be5b6215a500c22&#45;&gt;dir_c44c95bf3b41c3321c6014770d618ac8</title>
<path fill="none" stroke="black" d="M99.3342,-375.955C100.03,-338.394 101.638,-251.554 102.474,-206.41"/>
<polygon fill="black" stroke="black" points="105.978,-206.208 102.664,-196.145 98.9793,-206.079 105.978,-206.208"/>
<a xlink:href="dir_000030_000037.html" target="_top" xlink:title="7">
<text text-anchor="middle" x="108.75" y="-207.355" font-family="Helvetica,sans-Serif" font-size="10.00">7</text>
</a>
</g>
<!-- dir_c4f4646ab0f4a2967be5b6215a500c22&#45;&gt;dir_da9e88029a658bab9ad39bb8696ef9bc -->
<g id="edge29" class="edge"><title>dir_c4f4646ab0f4a2967be5b6215a500c22&#45;&gt;dir_da9e88029a658bab9ad39bb8696ef9bc</title>
<path fill="none" stroke="black" d="M89.2893,-375.891C75.1082,-336.711 53.5104,-241.062 58,-160 58.4621,-151.656 59.323,-142.62 60.6243,-134.37"/>
<polygon fill="black" stroke="black" points="64.0804,-134.93 62.5112,-124.452 57.2038,-133.622 64.0804,-134.93"/>
<a xlink:href="dir_000030_000040.html" target="_top" xlink:title="10">
<text text-anchor="middle" x="66.1979" y="-136.492" font-family="Helvetica,sans-Serif" font-size="10.00">10</text>
</a>
</g>
<!-- dir_5eb03804bf445589bf35c6aa84fb9a34&#45;&gt;dir_0af1587c8378955de40f48b4bd1869f0 -->
<g id="edge33" class="edge"><title>dir_5eb03804bf445589bf35c6aa84fb9a34&#45;&gt;dir_0af1587c8378955de40f48b4bd1869f0</title>
<path fill="none" stroke="black" d="M146.998,-231.955C144.911,-194.394 140.086,-107.554 137.578,-62.4103"/>
<polygon fill="black" stroke="black" points="141.057,-61.9355 137.008,-52.1451 134.068,-62.3238 141.057,-61.9355"/>
<a xlink:href="dir_000034_000022.html" target="_top" xlink:title="10">
<text text-anchor="middle" x="144.092" y="-62.8671" font-family="Helvetica,sans-Serif" font-size="10.00">10</text>
</a>
</g>
<!-- dir_5eb03804bf445589bf35c6aa84fb9a34&#45;&gt;dir_c4f4646ab0f4a2967be5b6215a500c22 -->
<g id="edge37" class="edge"><title>dir_5eb03804bf445589bf35c6aa84fb9a34&#45;&gt;dir_c4f4646ab0f4a2967be5b6215a500c22</title>
<path fill="none" stroke="black" d="M148.416,-268.377C145.334,-278.767 140.182,-292.036 136,-304 128.745,-324.757 121.391,-348.521 114.74,-366.415"/>
<polygon fill="black" stroke="black" points="111.394,-365.362 111.018,-375.95 117.915,-367.908 111.394,-365.362"/>
<a xlink:href="dir_000034_000030.html" target="_top" xlink:title="6">
<text text-anchor="middle" x="110.057" y="-358.481" font-family="Helvetica,sans-Serif" font-size="10.00">6</text>
</a>
</g>
<!-- dir_5eb03804bf445589bf35c6aa84fb9a34&#45;&gt;dir_c44c95bf3b41c3321c6014770d618ac8 -->
<g id="edge35" class="edge"><title>dir_5eb03804bf445589bf35c6aa84fb9a34&#45;&gt;dir_c44c95bf3b41c3321c6014770d618ac8</title>
<path fill="none" stroke="black" d="M136.645,-231.831C131.567,-223.708 125.477,-213.964 119.882,-205.012"/>
<polygon fill="black" stroke="black" points="122.776,-203.038 114.508,-196.413 116.84,-206.748 122.776,-203.038"/>
<a xlink:href="dir_000034_000037.html" target="_top" xlink:title="11">
<text text-anchor="middle" x="127.089" y="-202.082" font-family="Helvetica,sans-Serif" font-size="10.00">11</text>
</a>
</g>
<!-- dir_6fc06de2ebc6dbe1875ad25a0e372edd -->
<g id="node8" class="node"><title>dir_6fc06de2ebc6dbe1875ad25a0e372edd</title>
<a xlink:href="dir_6fc06de2ebc6dbe1875ad25a0e372edd.html" target="_top" xlink:title="rint">
<polygon fill="white" stroke="black" points="240,-412 186,-412 186,-376 240,-376 240,-412"/>
<text text-anchor="middle" x="213" y="-391.5" font-family="Helvetica,sans-Serif" font-size="10.00">rint</text>
</a>
</g>
<!-- dir_6fc06de2ebc6dbe1875ad25a0e372edd&#45;&gt;dir_f1b881a94df93d2a183c4d8f47373448 -->
<g id="edge51" class="edge"><title>dir_6fc06de2ebc6dbe1875ad25a0e372edd&#45;&gt;dir_f1b881a94df93d2a183c4d8f47373448</title>
<path fill="none" stroke="black" d="M201.14,-375.831C195.837,-367.708 189.476,-357.964 183.633,-349.012"/>
<polygon fill="black" stroke="black" points="186.417,-346.874 178.02,-340.413 180.555,-350.7 186.417,-346.874"/>
<a xlink:href="dir_000036_000025.html" target="_top" xlink:title="1">
<text text-anchor="middle" x="190.759" y="-345.832" font-family="Helvetica,sans-Serif" font-size="10.00">1</text>
</a>
</g>
<!-- dir_6fc06de2ebc6dbe1875ad25a0e372edd&#45;&gt;dir_c44c95bf3b41c3321c6014770d618ac8 -->
<g id="edge49" class="edge"><title>dir_6fc06de2ebc6dbe1875ad25a0e372edd&#45;&gt;dir_c44c95bf3b41c3321c6014770d618ac8</title>
<path fill="none" stroke="black" d="M216.701,-375.875C222.215,-343.543 228.81,-275.262 197,-232 182.82,-212.715 159.527,-199.263 139.677,-190.609"/>
<polygon fill="black" stroke="black" points="140.844,-187.304 130.264,-186.741 138.183,-193.779 140.844,-187.304"/>
<a xlink:href="dir_000036_000037.html" target="_top" xlink:title="1">
<text text-anchor="middle" x="145.248" y="-183.544" font-family="Helvetica,sans-Serif" font-size="10.00">1</text>
</a>
</g>
<!-- dir_d73d1ee04cc237a5854777ea99c55872 -->
<g id="node9" class="node"><title>dir_d73d1ee04cc237a5854777ea99c55872</title>
<a xlink:href="dir_d73d1ee04cc237a5854777ea99c55872.html" target="_top" xlink:title="simulation">
<polygon fill="white" stroke="red" points="89,-484 29,-484 29,-448 89,-448 89,-484"/>
<text text-anchor="middle" x="59" y="-463.5" font-family="Helvetica,sans-Serif" font-size="10.00">simulation</text>
</a>
</g>
<!-- dir_c44c95bf3b41c3321c6014770d618ac8&#45;&gt;dir_0af1587c8378955de40f48b4bd1869f0 -->
<g id="edge3" class="edge"><title>dir_c44c95bf3b41c3321c6014770d618ac8&#45;&gt;dir_0af1587c8378955de40f48b4bd1869f0</title>
<path fill="none" stroke="black" d="M107.179,-159.762C112.833,-135.093 122.97,-90.8598 129.59,-61.9731"/>
<polygon fill="black" stroke="black" points="133.032,-62.6188 131.854,-52.0896 126.209,-61.0551 133.032,-62.6188"/>
<a xlink:href="dir_000037_000022.html" target="_top" xlink:title="15">
<text text-anchor="middle" x="134.997" y="-64.2568" font-family="Helvetica,sans-Serif" font-size="10.00">15</text>
</a>
</g>
<!-- dir_c44c95bf3b41c3321c6014770d618ac8&#45;&gt;dir_da9e88029a658bab9ad39bb8696ef9bc -->
<g id="edge5" class="edge"><title>dir_c44c95bf3b41c3321c6014770d618ac8&#45;&gt;dir_da9e88029a658bab9ad39bb8696ef9bc</title>
<path fill="none" stroke="black" d="M89.4773,-159.831C85.4314,-151.962 81.3048,-142.571 78.0116,-133.853"/>
<polygon fill="black" stroke="black" points="81.3121,-132.689 74.6962,-124.413 74.7076,-135.008 81.3121,-132.689"/>
<a xlink:href="dir_000037_000040.html" target="_top" xlink:title="2">
<text text-anchor="middle" x="85.1821" y="-132.639" font-family="Helvetica,sans-Serif" font-size="10.00">2</text>
</a>
</g>
<!-- dir_da9e88029a658bab9ad39bb8696ef9bc&#45;&gt;dir_0af1587c8378955de40f48b4bd1869f0 -->
<g id="edge17" class="edge"><title>dir_da9e88029a658bab9ad39bb8696ef9bc&#45;&gt;dir_0af1587c8378955de40f48b4bd1869f0</title>
<path fill="none" stroke="black" d="M88.8976,-87.8314C96.2278,-79.454 105.066,-69.3531 113.097,-60.1749"/>
<polygon fill="black" stroke="black" points="115.937,-62.2438 119.888,-52.4133 110.669,-57.6343 115.937,-62.2438"/>
<a xlink:href="dir_000040_000022.html" target="_top" xlink:title="12">
<text text-anchor="middle" x="115.707" y="-64.3187" font-family="Helvetica,sans-Serif" font-size="10.00">12</text>
</a>
</g>
<!-- dir_da9e88029a658bab9ad39bb8696ef9bc&#45;&gt;dir_c4f4646ab0f4a2967be5b6215a500c22 -->
<g id="edge21" class="edge"><title>dir_da9e88029a658bab9ad39bb8696ef9bc&#45;&gt;dir_c4f4646ab0f4a2967be5b6215a500c22</title>
<path fill="none" stroke="black" d="M78.3651,-124.452C78.121,-134.866 76.6573,-148.133 76,-160 71.8524,-234.887 89.9693,-322.224 97.3681,-365.987"/>
<polygon fill="black" stroke="black" points="93.9175,-366.574 98.9611,-375.891 100.829,-365.463 93.9175,-366.574"/>
<a xlink:href="dir_000040_000030.html" target="_top" xlink:title="4">
<text text-anchor="middle" x="90.5435" y="-360.976" font-family="Helvetica,sans-Serif" font-size="10.00">4</text>
</a>
</g>
<!-- dir_da9e88029a658bab9ad39bb8696ef9bc&#45;&gt;dir_c44c95bf3b41c3321c6014770d618ac8 -->
<g id="edge19" class="edge"><title>dir_da9e88029a658bab9ad39bb8696ef9bc&#45;&gt;dir_c44c95bf3b41c3321c6014770d618ac8</title>
<path fill="none" stroke="black" d="M86.6482,-124.413C90.6522,-132.229 94.7259,-141.511 97.9844,-150.136"/>
<polygon fill="black" stroke="black" points="94.7717,-151.552 101.382,-159.831 101.378,-149.237 94.7717,-151.552"/>
<a xlink:href="dir_000040_000037.html" target="_top" xlink:title="11">
<text text-anchor="middle" x="90.9035" y="-146.598" font-family="Helvetica,sans-Serif" font-size="10.00">11</text>
</a>
</g>
</g>
</svg>
