<?xml version="1.0" encoding="UTF-8" standalone="no"?>
<!DOCTYPE svg PUBLIC "-//W3C//DTD SVG 1.1//EN"
 "http://www.w3.org/Graphics/SVG/1.1/DTD/svg11.dtd">
<!-- Generated by graphviz version 2.26.3 (20100126.1600)
 -->
<!-- Title: src/rint Pages: 1 -->
<svg width="110pt" height="225pt"
 viewBox="0.00 0.00 110.00 225.00" xmlns="http://www.w3.org/2000/svg" xmlns:xlink="http://www.w3.org/1999/xlink">
<g id="graph1" class="graph" transform="scale(1 1) rotate(0) translate(4 221)">
<title>src/rint</title>
<polygon fill="white" stroke="white" points="-4,5 -4,-221 107,-221 107,5 -4,5"/>
<g id="graph2" class="cluster"><title>clusterdir_68267d1309a1af8e8297ef4c3efbcdba</title>
<a xlink:href="dir_68267d1309a1af8e8297ef4c3efbcdba.html" target="_top" xlink:title="src">
<polygon fill="#ddddee" stroke="black" points="8,-136 8,-209 78,-209 78,-136 8,-136"/>
<text text-anchor="middle" x="43" y="-196" font-family="Helvetica,sans-Serif" font-size="10.00">src</text>
</a>
</g>
<!-- dir_6fc06de2ebc6dbe1875ad25a0e372edd -->
<g id="node2" class="node"><title>dir_6fc06de2ebc6dbe1875ad25a0e372edd</title>
<a xlink:href="dir_6fc06de2ebc6dbe1875ad25a0e372edd.html" target="_top" xlink:title="rint">
<polygon fill="#eeeeff" stroke="black" points="70,-180 16,-180 16,-144 70,-144 70,-180"/>
<text text-anchor="middle" x="43" y="-159.5" font-family="Helvetica,sans-Serif" font-size="10.00">rint</text>
</a>
</g>
<!-- dir_c44c95bf3b41c3321c6014770d618ac8 -->
<g id="node3" class="node"><title>dir_c44c95bf3b41c3321c6014770d618ac8</title>
<a xlink:href="dir_c44c95bf3b41c3321c6014770d618ac8.html" target="_top" xlink:title="tree">
<polygon fill="none" stroke="black" points="70,-36 16,-36 16,-1.77636e-14 70,-3.55271e-15 70,-36"/>
<text text-anchor="middle" x="43" y="-15.5" font-family="Helvetica,sans-Serif" font-size="10.00">tree</text>
</a>
</g>
<!-- dir_6fc06de2ebc6dbe1875ad25a0e372edd&#45;&gt;dir_c44c95bf3b41c3321c6014770d618ac8 -->
<g id="edge5" class="edge"><title>dir_6fc06de2ebc6dbe1875ad25a0e372edd&#45;&gt;dir_c44c95bf3b41c3321c6014770d618ac8</title>
<path fill="none" stroke="black" d="M38.7325,-143.622C36.538,-133.231 34.0984,-119.963 33,-108 31.5372,-92.067 31.5372,-87.933 33,-72 33.7723,-63.5885 35.2077,-54.5317 36.7547,-46.2836"/>
<polygon fill="black" stroke="black" points="40.2067,-46.8697 38.7325,-36.3779 33.3422,-45.499 40.2067,-46.8697"/>
<a xlink:href="dir_000036_000037.html" target="_top" xlink:title="1">
<text text-anchor="middle" x="42.2873" y="-48.4506" font-family="Helvetica,sans-Serif" font-size="10.00">1</text>
</a>
</g>
<!-- dir_f1b881a94df93d2a183c4d8f47373448 -->
<g id="node4" class="node"><title>dir_f1b881a94df93d2a183c4d8f47373448</title>
<a xlink:href="dir_f1b881a94df93d2a183c4d8f47373448.html" target="_top" xlink:title="calibration">
<polygon fill="white" stroke="red" points="102,-108 42,-108 42,-72 102,-72 102,-108"/>
<text text-anchor="middle" x="72" y="-87.5" font-family="Helvetica,sans-Serif" font-size="10.00">calibration</text>
</a>
</g>
<!-- dir_6fc06de2ebc6dbe1875ad25a0e372edd&#45;&gt;dir_f1b881a94df93d2a183c4d8f47373448 -->
<g id="edge7" class="edge"><title>dir_6fc06de2ebc6dbe1875ad25a0e372edd&#45;&gt;dir_f1b881a94df93d2a183c4d8f47373448</title>
<path fill="none" stroke="black" d="M50.3179,-143.831C53.4876,-135.962 57.27,-126.571 60.7813,-117.853"/>
<polygon fill="black" stroke="black" points="64.0939,-118.997 64.5835,-108.413 57.6008,-116.381 64.0939,-118.997"/>
<a xlink:href="dir_000036_000025.html" target="_top" xlink:title="1">
<text text-anchor="middle" x="65.3847" y="-120.892" font-family="Helvetica,sans-Serif" font-size="10.00">1</text>
</a>
</g>
<!-- dir_f1b881a94df93d2a183c4d8f47373448&#45;&gt;dir_c44c95bf3b41c3321c6014770d618ac8 -->
<g id="edge3" class="edge"><title>dir_f1b881a94df93d2a183c4d8f47373448&#45;&gt;dir_c44c95bf3b41c3321c6014770d618ac8</title>
<path fill="none" stroke="black" d="M64.6821,-71.8314C61.5124,-63.9617 57.73,-54.5712 54.2187,-45.8533"/>
<polygon fill="black" stroke="black" points="57.3992,-44.3815 50.4165,-36.4133 50.9061,-46.9968 57.3992,-44.3815"/>
<a xlink:href="dir_000025_000037.html" target="_top" xlink:title="23">
<text text-anchor="middle" x="61.3758" y="-44.155" font-family="Helvetica,sans-Serif" font-size="10.00">23</text>
</a>
</g>
</g>
</svg>
