<?xml version="1.0" encoding="UTF-8" standalone="no"?>
<!DOCTYPE svg PUBLIC "-//W3C//DTD SVG 1.1//EN"
 "http://www.w3.org/Graphics/SVG/1.1/DTD/svg11.dtd">
<!-- Generated by graphviz version 2.26.3 (20100126.1600)
 -->
<!-- Title: progs/omega_histograms.cc Pages: 1 -->
<svg width="3437pt" height="232pt"
 viewBox="0.00 0.00 3437.31 232.00" xmlns="http://www.w3.org/2000/svg" xmlns:xlink="http://www.w3.org/1999/xlink">
<g id="graph1" class="graph" transform="scale(1 1) rotate(0) translate(4 228)">
<title>progs/omega_histograms.cc</title>
<polygon fill="white" stroke="white" points="-4,5 -4,-228 3434.31,-228 3434.31,5 -4,5"/>
<!-- Node1 -->
<g id="node1" class="node"><title>Node1</title>
<polygon fill="#bfbfbf" stroke="black" points="2734.31,-202.5 2734.31,-223.5 2874.31,-223.5 2874.31,-202.5 2734.31,-202.5"/>
<text text-anchor="middle" x="2804.31" y="-210.5" font-family="Helvetica,sans-Serif" font-size="10.00">progs/omega_histograms.cc</text>
</g>
<!-- Node2 -->
<g id="node3" class="node"><title>Node2</title>
<a xlink:href="_wrap_t_file_8h.html" target="_top" xlink:title="base/WrapTFile.h">
<polygon fill="white" stroke="black" points="2757.31,-137.5 2757.31,-158.5 2851.31,-158.5 2851.31,-137.5 2757.31,-137.5"/>
<text text-anchor="middle" x="2804.31" y="-145.5" font-family="Helvetica,sans-Serif" font-size="10.00">base/WrapTFile.h</text>
</a>
</g>
<!-- Node1&#45;&gt;Node2 -->
<g id="edge2" class="edge"><title>Node1&#45;&gt;Node2</title>
<path fill="none" stroke="midnightblue" d="M2804.31,-202.267C2804.31,-193.18 2804.31,-179.892 2804.31,-168.74"/>
<polygon fill="midnightblue" stroke="midnightblue" points="2807.81,-168.534 2804.31,-158.534 2800.81,-168.534 2807.81,-168.534"/>
</g>
<!-- Node4 -->
<g id="node7" class="node"><title>Node4</title>
<polygon fill="white" stroke="#bfbfbf" points="2276.81,-0.5 2276.81,-21.5 2317.81,-21.5 2317.81,-0.5 2276.81,-0.5"/>
<text text-anchor="middle" x="2297.31" y="-8.5" font-family="Helvetica,sans-Serif" font-size="10.00">string</text>
</g>
<!-- Node1&#45;&gt;Node4 -->
<g id="edge52" class="edge"><title>Node1&#45;&gt;Node4</title>
<path fill="none" stroke="midnightblue" d="M2734,-212.755C2309.56,-210.94 104.292,-196.583 8.31471,-94 -2.61659,-82.3164 -2.88227,-69.4292 8.31471,-58 29.0309,-36.8541 1994.95,-14.3467 2266.37,-11.3389"/>
<polygon fill="midnightblue" stroke="midnightblue" points="2266.71,-14.8355 2276.67,-11.2251 2266.63,-7.83591 2266.71,-14.8355"/>
</g>
<!-- Node5 -->
<g id="node9" class="node"><title>Node5</title>
<polygon fill="white" stroke="#bfbfbf" points="2596.81,-65.5 2596.81,-86.5 2625.81,-86.5 2625.81,-65.5 2596.81,-65.5"/>
<text text-anchor="middle" x="2611.31" y="-73.5" font-family="Helvetica,sans-Serif" font-size="10.00">list</text>
</g>
<!-- Node1&#45;&gt;Node5 -->
<g id="edge54" class="edge"><title>Node1&#45;&gt;Node5</title>
<path fill="none" stroke="midnightblue" d="M2782.98,-202.421C2765.61,-193.494 2740.72,-179.968 2720.31,-166 2687.06,-143.241 2651.62,-112.651 2630.48,-93.6386"/>
<polygon fill="midnightblue" stroke="midnightblue" points="2632.62,-90.8498 2622.86,-86.7249 2627.91,-96.0352 2632.62,-90.8498"/>
</g>
<!-- Node6 -->
<g id="node11" class="node"><title>Node6</title>
<a xlink:href="string_8h.html" target="_top" xlink:title="base/std_ext/string.h">
<polygon fill="white" stroke="black" points="2643.31,-65.5 2643.31,-86.5 2751.31,-86.5 2751.31,-65.5 2643.31,-65.5"/>
<text text-anchor="middle" x="2697.31" y="-73.5" font-family="Helvetica,sans-Serif" font-size="10.00">base/std_ext/string.h</text>
</a>
</g>
<!-- Node1&#45;&gt;Node6 -->
<g id="edge108" class="edge"><title>Node1&#45;&gt;Node6</title>
<path fill="none" stroke="midnightblue" d="M2788.75,-202.314C2776.72,-193.528 2760.17,-180.244 2748.31,-166 2730.2,-144.235 2715.06,-115.142 2706.09,-96.0025"/>
<polygon fill="midnightblue" stroke="midnightblue" points="2709.21,-94.3976 2701.88,-86.748 2702.84,-97.2993 2709.21,-94.3976"/>
</g>
<!-- Node10 -->
<g id="node20" class="node"><title>Node10</title>
<polygon fill="white" stroke="#bfbfbf" points="3162.81,-65.5 3162.81,-86.5 3233.81,-86.5 3233.81,-65.5 3162.81,-65.5"/>
<text text-anchor="middle" x="3198.31" y="-73.5" font-family="Helvetica,sans-Serif" font-size="10.00">TDirectory.h</text>
</g>
<!-- Node1&#45;&gt;Node10 -->
<g id="edge102" class="edge"><title>Node1&#45;&gt;Node10</title>
<path fill="none" stroke="midnightblue" d="M2817.4,-202.39C2828.87,-193.003 2845.92,-178.841 2860.31,-166 2877.68,-150.515 2877.36,-140.099 2898.31,-130 3001.82,-80.1227 3043.4,-123.983 3154.31,-94 3158.15,-92.9635 3162.1,-91.6806 3165.98,-90.2805"/>
<polygon fill="midnightblue" stroke="midnightblue" points="3167.34,-93.5086 3175.4,-86.6327 3164.81,-86.9812 3167.34,-93.5086"/>
</g>
<!-- Node15 -->
<g id="node30" class="node"><title>Node15</title>
<a xlink:href="_logger_8h.html" target="_top" xlink:title="base/Logger.h">
<polygon fill="white" stroke="black" points="2907.31,-137.5 2907.31,-158.5 2985.31,-158.5 2985.31,-137.5 2907.31,-137.5"/>
<text text-anchor="middle" x="2946.31" y="-145.5" font-family="Helvetica,sans-Serif" font-size="10.00">base/Logger.h</text>
</a>
</g>
<!-- Node1&#45;&gt;Node15 -->
<g id="edge30" class="edge"><title>Node1&#45;&gt;Node15</title>
<path fill="none" stroke="midnightblue" d="M2827.45,-202.412C2850.96,-191.647 2887.6,-174.878 2913.98,-162.801"/>
<polygon fill="midnightblue" stroke="midnightblue" points="2915.56,-165.928 2923.19,-158.584 2912.64,-159.563 2915.56,-165.928"/>
</g>
<!-- Node17 -->
<g id="node34" class="node"><title>Node17</title>
<polygon fill="white" stroke="#bfbfbf" points="3002.81,-137.5 3002.81,-158.5 3051.81,-158.5 3051.81,-137.5 3002.81,-137.5"/>
<text text-anchor="middle" x="3027.31" y="-145.5" font-family="Helvetica,sans-Serif" font-size="10.00">TRint.h</text>
</g>
<!-- Node1&#45;&gt;Node17 -->
<g id="edge34" class="edge"><title>Node1&#45;&gt;Node17</title>
<path fill="none" stroke="midnightblue" d="M2863.3,-202.483C2901.44,-194.699 2951.72,-182.566 2994.31,-166 2996.44,-165.174 2998.6,-164.237 3000.74,-163.237"/>
<polygon fill="midnightblue" stroke="midnightblue" points="3002.58,-166.232 3009.9,-158.579 2999.4,-159.992 3002.58,-166.232"/>
</g>
<!-- Node18 -->
<g id="node36" class="node"><title>Node18</title>
<a xlink:href="root__draw_8h.html" target="_top" xlink:title="analysis/plot/root\l_draw.h">
<polygon fill="white" stroke="black" points="2398.81,-131 2398.81,-165 2489.81,-165 2489.81,-131 2398.81,-131"/>
<text text-anchor="start" x="2406.81" y="-152" font-family="Helvetica,sans-Serif" font-size="10.00">analysis/plot/root</text>
<text text-anchor="middle" x="2444.31" y="-139" font-family="Helvetica,sans-Serif" font-size="10.00">_draw.h</text>
</a>
</g>
<!-- Node1&#45;&gt;Node18 -->
<g id="edge36" class="edge"><title>Node1&#45;&gt;Node18</title>
<path fill="none" stroke="midnightblue" d="M2746.07,-202.484C2678.12,-190.215 2566.59,-170.077 2499.83,-158.023"/>
<polygon fill="midnightblue" stroke="midnightblue" points="2500.37,-154.565 2489.91,-156.233 2499.13,-161.454 2500.37,-154.565"/>
</g>
<!-- Node23 -->
<g id="node51" class="node"><title>Node23</title>
<polygon fill="white" stroke="#bfbfbf" points="3068.81,-137.5 3068.81,-158.5 3119.81,-158.5 3119.81,-137.5 3068.81,-137.5"/>
<text text-anchor="middle" x="3094.31" y="-145.5" font-family="Helvetica,sans-Serif" font-size="10.00">TH1D.h</text>
</g>
<!-- Node1&#45;&gt;Node23 -->
<g id="edge56" class="edge"><title>Node1&#45;&gt;Node23</title>
<path fill="none" stroke="midnightblue" d="M2874.51,-205.968C2926.8,-199.336 2999.38,-187.161 3060.31,-166 3062.74,-165.156 3065.21,-164.16 3067.65,-163.074"/>
<polygon fill="midnightblue" stroke="midnightblue" points="3069.35,-166.141 3076.78,-158.59 3066.26,-159.858 3069.35,-166.141"/>
</g>
<!-- Node24 -->
<g id="node53" class="node"><title>Node24</title>
<a xlink:href="_cmd_line_8h.html" target="_top" xlink:title="base/CmdLine.h">
<polygon fill="white" stroke="black" points="1098.31,-137.5 1098.31,-158.5 1186.31,-158.5 1186.31,-137.5 1098.31,-137.5"/>
<text text-anchor="middle" x="1142.31" y="-145.5" font-family="Helvetica,sans-Serif" font-size="10.00">base/CmdLine.h</text>
</a>
</g>
<!-- Node1&#45;&gt;Node24 -->
<g id="edge58" class="edge"><title>Node1&#45;&gt;Node24</title>
<path fill="none" stroke="midnightblue" d="M2734.23,-210.259C2457.48,-199.435 1443.8,-159.791 1196.84,-150.132"/>
<polygon fill="midnightblue" stroke="midnightblue" points="1196.8,-146.628 1186.67,-149.735 1196.53,-153.623 1196.8,-146.628"/>
</g>
<!-- Node41 -->
<g id="node93" class="node"><title>Node41</title>
<a xlink:href="iterators_8h.html" target="_top" xlink:title="base/iterators.h">
<polygon fill="white" stroke="black" points="3263.31,-137.5 3263.31,-158.5 3347.31,-158.5 3347.31,-137.5 3263.31,-137.5"/>
<text text-anchor="middle" x="3305.31" y="-145.5" font-family="Helvetica,sans-Serif" font-size="10.00">base/iterators.h</text>
</a>
</g>
<!-- Node1&#45;&gt;Node41 -->
<g id="edge104" class="edge"><title>Node1&#45;&gt;Node41</title>
<path fill="none" stroke="midnightblue" d="M2874.5,-203.894C2976.28,-190.689 3162.54,-166.524 3253.1,-154.774"/>
<polygon fill="midnightblue" stroke="midnightblue" points="3253.67,-158.23 3263.14,-153.472 3252.77,-151.288 3253.67,-158.23"/>
</g>
<!-- Node3 -->
<g id="node5" class="node"><title>Node3</title>
<polygon fill="white" stroke="#bfbfbf" points="2325.31,-65.5 2325.31,-86.5 2377.31,-86.5 2377.31,-65.5 2325.31,-65.5"/>
<text text-anchor="middle" x="2351.31" y="-73.5" font-family="Helvetica,sans-Serif" font-size="10.00">memory</text>
</g>
<!-- Node2&#45;&gt;Node3 -->
<g id="edge4" class="edge"><title>Node2&#45;&gt;Node3</title>
<path fill="none" stroke="midnightblue" d="M2757.12,-143.971C2662.9,-135.591 2454.7,-115.284 2386.31,-94 2383.56,-93.1433 2380.77,-92.0802 2378.02,-90.9019"/>
<polygon fill="midnightblue" stroke="midnightblue" points="2379.5,-87.7338 2368.97,-86.5848 2376.49,-94.0511 2379.5,-87.7338"/>
</g>
<!-- Node2&#45;&gt;Node4 -->
<g id="edge6" class="edge"><title>Node2&#45;&gt;Node4</title>
<path fill="none" stroke="midnightblue" d="M2802.52,-137.213C2798.65,-117.744 2787.57,-76.9927 2760.31,-58 2724.89,-33.3168 2425.87,-17.0875 2328.11,-12.4017"/>
<polygon fill="midnightblue" stroke="midnightblue" points="2328.14,-8.89944 2317.99,-11.9236 2327.81,-15.8916 2328.14,-8.89944"/>
</g>
<!-- Node2&#45;&gt;Node5 -->
<g id="edge8" class="edge"><title>Node2&#45;&gt;Node5</title>
<path fill="none" stroke="midnightblue" d="M2757.08,-137.81C2721.93,-129.103 2673.47,-114.677 2634.31,-94 2633.49,-93.565 2632.67,-93.0996 2631.85,-92.6106"/>
<polygon fill="midnightblue" stroke="midnightblue" points="2633.62,-89.5835 2623.41,-86.7646 2629.64,-95.3371 2633.62,-89.5835"/>
</g>
<!-- Node2&#45;&gt;Node6 -->
<g id="edge10" class="edge"><title>Node2&#45;&gt;Node6</title>
<path fill="none" stroke="midnightblue" d="M2788.53,-137.376C2770.9,-125.518 2742.18,-106.186 2721.67,-92.3877"/>
<polygon fill="midnightblue" stroke="midnightblue" points="2723.42,-89.3464 2713.17,-86.6674 2719.51,-95.154 2723.42,-89.3464"/>
</g>
<!-- Node9 -->
<g id="node18" class="node"><title>Node9</title>
<polygon fill="white" stroke="#bfbfbf" points="2806.81,-65.5 2806.81,-86.5 2853.81,-86.5 2853.81,-65.5 2806.81,-65.5"/>
<text text-anchor="middle" x="2830.31" y="-73.5" font-family="Helvetica,sans-Serif" font-size="10.00">TFile.h</text>
</g>
<!-- Node2&#45;&gt;Node9 -->
<g id="edge18" class="edge"><title>Node2&#45;&gt;Node9</title>
<path fill="none" stroke="midnightblue" d="M2808.15,-137.376C2812.03,-126.635 2818.12,-109.761 2822.94,-96.4223"/>
<polygon fill="midnightblue" stroke="midnightblue" points="2826.36,-97.2618 2826.46,-86.6674 2819.77,-94.8842 2826.36,-97.2618"/>
</g>
<!-- Node2&#45;&gt;Node10 -->
<g id="edge20" class="edge"><title>Node2&#45;&gt;Node10</title>
<path fill="none" stroke="midnightblue" d="M2836.36,-137.479C2845.62,-134.729 2855.8,-131.982 2865.31,-130 2992.03,-103.596 3029.1,-126.791 3154.31,-94 3158.24,-92.9709 3162.29,-91.6722 3166.26,-90.2455"/>
<polygon fill="midnightblue" stroke="midnightblue" points="3167.81,-93.3972 3175.87,-86.5164 3165.28,-86.8713 3167.81,-93.3972"/>
</g>
<!-- Node11 -->
<g id="node22" class="node"><title>Node11</title>
<polygon fill="white" stroke="#bfbfbf" points="2871.31,-65.5 2871.31,-86.5 2923.31,-86.5 2923.31,-65.5 2871.31,-65.5"/>
<text text-anchor="middle" x="2897.31" y="-73.5" font-family="Helvetica,sans-Serif" font-size="10.00">TError.h</text>
</g>
<!-- Node2&#45;&gt;Node11 -->
<g id="edge22" class="edge"><title>Node2&#45;&gt;Node11</title>
<path fill="none" stroke="midnightblue" d="M2818.04,-137.376C2833.15,-125.678 2857.65,-106.705 2875.42,-92.9475"/>
<polygon fill="midnightblue" stroke="midnightblue" points="2877.77,-95.5567 2883.54,-86.6674 2873.49,-90.0217 2877.77,-95.5567"/>
</g>
<!-- Node12 -->
<g id="node24" class="node"><title>Node12</title>
<polygon fill="white" stroke="#bfbfbf" points="2940.81,-65.5 2940.81,-86.5 2987.81,-86.5 2987.81,-65.5 2940.81,-65.5"/>
<text text-anchor="middle" x="2964.31" y="-73.5" font-family="Helvetica,sans-Serif" font-size="10.00">TList.h</text>
</g>
<!-- Node2&#45;&gt;Node12 -->
<g id="edge24" class="edge"><title>Node2&#45;&gt;Node12</title>
<path fill="none" stroke="midnightblue" d="M2831.68,-137.497C2857.87,-127.202 2898.31,-110.668 2932.31,-94 2933.89,-93.2284 2935.49,-92.4149 2937.11,-91.5773"/>
<polygon fill="midnightblue" stroke="midnightblue" points="2939.1,-94.4784 2946.23,-86.6424 2935.77,-88.3213 2939.1,-94.4784"/>
</g>
<!-- Node13 -->
<g id="node26" class="node"><title>Node13</title>
<polygon fill="white" stroke="#bfbfbf" points="3005.31,-65.5 3005.31,-86.5 3079.31,-86.5 3079.31,-65.5 3005.31,-65.5"/>
<text text-anchor="middle" x="3042.31" y="-73.5" font-family="Helvetica,sans-Serif" font-size="10.00">TCollection.h</text>
</g>
<!-- Node2&#45;&gt;Node13 -->
<g id="edge26" class="edge"><title>Node2&#45;&gt;Node13</title>
<path fill="none" stroke="midnightblue" d="M2839.76,-137.418C2848.13,-134.953 2857.03,-132.36 2865.31,-130 2923.38,-113.455 2939.01,-113.027 2996.31,-94 2999.86,-92.8228 3003.53,-91.5249 3007.18,-90.1817"/>
<polygon fill="midnightblue" stroke="midnightblue" points="3008.59,-93.3907 3016.7,-86.5715 3006.11,-86.8457 3008.59,-93.3907"/>
</g>
<!-- Node14 -->
<g id="node28" class="node"><title>Node14</title>
<polygon fill="white" stroke="#bfbfbf" points="3097.31,-65.5 3097.31,-86.5 3145.31,-86.5 3145.31,-65.5 3097.31,-65.5"/>
<text text-anchor="middle" x="3121.31" y="-73.5" font-family="Helvetica,sans-Serif" font-size="10.00">TKey.h</text>
</g>
<!-- Node2&#45;&gt;Node14 -->
<g id="edge28" class="edge"><title>Node2&#45;&gt;Node14</title>
<path fill="none" stroke="midnightblue" d="M2837.36,-137.42C2846.36,-134.763 2856.16,-132.08 2865.31,-130 2963.21,-107.749 2993.33,-126.504 3088.31,-94 3090.61,-93.2156 3092.93,-92.2802 3095.22,-91.254"/>
<polygon fill="midnightblue" stroke="midnightblue" points="3096.98,-94.2882 3104.35,-86.6792 3093.84,-88.0299 3096.98,-94.2882"/>
</g>
<!-- Node6&#45;&gt;Node4 -->
<g id="edge12" class="edge"><title>Node6&#45;&gt;Node4</title>
<path fill="none" stroke="midnightblue" d="M2663.53,-65.4073C2654.14,-62.7199 2643.89,-60.0243 2634.31,-58 2522.78,-34.4091 2387.89,-19.6763 2328.24,-13.8529"/>
<polygon fill="midnightblue" stroke="midnightblue" points="2328.29,-10.3417 2318,-12.8691 2327.62,-17.3096 2328.29,-10.3417"/>
</g>
<!-- Node7 -->
<g id="node14" class="node"><title>Node7</title>
<polygon fill="white" stroke="#bfbfbf" points="2671.31,-0.5 2671.31,-21.5 2723.31,-21.5 2723.31,-0.5 2671.31,-0.5"/>
<text text-anchor="middle" x="2697.31" y="-8.5" font-family="Helvetica,sans-Serif" font-size="10.00">sstream</text>
</g>
<!-- Node6&#45;&gt;Node7 -->
<g id="edge14" class="edge"><title>Node6&#45;&gt;Node7</title>
<path fill="none" stroke="midnightblue" d="M2697.31,-65.2666C2697.31,-56.1799 2697.31,-42.8919 2697.31,-31.7395"/>
<polygon fill="midnightblue" stroke="midnightblue" points="2700.81,-31.5337 2697.31,-21.5337 2693.81,-31.5337 2700.81,-31.5337"/>
</g>
<!-- Node8 -->
<g id="node16" class="node"><title>Node8</title>
<polygon fill="white" stroke="#bfbfbf" points="1273.31,-0.5 1273.31,-21.5 1329.31,-21.5 1329.31,-0.5 1273.31,-0.5"/>
<text text-anchor="middle" x="1301.31" y="-8.5" font-family="Helvetica,sans-Serif" font-size="10.00">algorithm</text>
</g>
<!-- Node6&#45;&gt;Node8 -->
<g id="edge16" class="edge"><title>Node6&#45;&gt;Node8</title>
<path fill="none" stroke="midnightblue" d="M2665.93,-65.4094C2655.94,-62.4788 2644.76,-59.6517 2634.31,-58 2375.04,-17.0161 1529.53,-11.7614 1339.48,-11.0955"/>
<polygon fill="midnightblue" stroke="midnightblue" points="1339.42,-7.59536 1329.41,-11.0624 1339.4,-14.5953 1339.42,-7.59536"/>
</g>
<!-- Node16 -->
<g id="node32" class="node"><title>Node16</title>
<polygon fill="white" stroke="#bfbfbf" points="3250.81,-65.5 3250.81,-86.5 3365.81,-86.5 3365.81,-65.5 3250.81,-65.5"/>
<text text-anchor="middle" x="3308.31" y="-73.5" font-family="Helvetica,sans-Serif" font-size="10.00">detail/easylogging++.h</text>
</g>
<!-- Node15&#45;&gt;Node16 -->
<g id="edge32" class="edge"><title>Node15&#45;&gt;Node16</title>
<path fill="none" stroke="midnightblue" d="M2971.4,-137.436C2978.69,-134.685 2986.73,-131.949 2994.31,-130 3102.19,-102.287 3133.27,-116.695 3242.31,-94 3249.03,-92.6016 3256.08,-90.9175 3262.97,-89.1479"/>
<polygon fill="midnightblue" stroke="midnightblue" points="3264.12,-92.4644 3272.88,-86.5173 3262.32,-85.6984 3264.12,-92.4644"/>
</g>
<!-- Node18&#45;&gt;Node3 -->
<g id="edge46" class="edge"><title>Node18&#45;&gt;Node3</title>
<path fill="none" stroke="midnightblue" d="M2422.28,-130.937C2407.46,-119.465 2388.01,-104.408 2373.22,-92.958"/>
<polygon fill="midnightblue" stroke="midnightblue" points="2375.17,-90.0423 2365.12,-86.688 2370.88,-95.5774 2375.17,-90.0423"/>
</g>
<!-- Node18&#45;&gt;Node4 -->
<g id="edge38" class="edge"><title>Node18&#45;&gt;Node4</title>
<path fill="none" stroke="midnightblue" d="M2398.66,-139.68C2370.94,-132.287 2337.02,-118.662 2316.31,-94 2301.75,-76.6538 2297.82,-50.3435 2297,-32.0106"/>
<polygon fill="midnightblue" stroke="midnightblue" points="2300.5,-31.7183 2296.83,-21.7781 2293.5,-31.8351 2300.5,-31.7183"/>
</g>
<!-- Node18&#45;&gt;Node5 -->
<g id="edge40" class="edge"><title>Node18&#45;&gt;Node5</title>
<path fill="none" stroke="midnightblue" d="M2490,-134.827C2519.12,-125.484 2557.11,-111.51 2588.31,-94 2589.13,-93.544 2589.94,-93.0608 2590.75,-92.5565"/>
<polygon fill="midnightblue" stroke="midnightblue" points="2592.99,-95.259 2599.15,-86.6349 2588.96,-89.5387 2592.99,-95.259"/>
</g>
<!-- Node19 -->
<g id="node40" class="node"><title>Node19</title>
<polygon fill="white" stroke="#bfbfbf" points="2225.31,-65.5 2225.31,-86.5 2269.31,-86.5 2269.31,-65.5 2225.31,-65.5"/>
<text text-anchor="middle" x="2247.31" y="-73.5" font-family="Helvetica,sans-Serif" font-size="10.00">vector</text>
</g>
<!-- Node18&#45;&gt;Node19 -->
<g id="edge42" class="edge"><title>Node18&#45;&gt;Node19</title>
<path fill="none" stroke="midnightblue" d="M2398.58,-134.537C2366.01,-124.496 2321.43,-109.831 2283.31,-94 2281.08,-93.0729 2278.8,-92.0676 2276.51,-91.0223"/>
<polygon fill="midnightblue" stroke="midnightblue" points="2277.8,-87.7578 2267.27,-86.5969 2274.77,-94.0717 2277.8,-87.7578"/>
</g>
<!-- Node20 -->
<g id="node42" class="node"><title>Node20</title>
<polygon fill="white" stroke="#bfbfbf" points="2394.81,-65.5 2394.81,-86.5 2429.81,-86.5 2429.81,-65.5 2394.81,-65.5"/>
<text text-anchor="middle" x="2412.31" y="-73.5" font-family="Helvetica,sans-Serif" font-size="10.00">map</text>
</g>
<!-- Node18&#45;&gt;Node20 -->
<g id="edge44" class="edge"><title>Node18&#45;&gt;Node20</title>
<path fill="none" stroke="midnightblue" d="M2436.73,-130.937C2432.09,-120.494 2426.13,-107.079 2421.26,-96.1197"/>
<polygon fill="midnightblue" stroke="midnightblue" points="2424.42,-94.6176 2417.16,-86.901 2418.02,-97.4607 2424.42,-94.6176"/>
</g>
<!-- Node21 -->
<g id="node45" class="node"><title>Node21</title>
<polygon fill="white" stroke="#bfbfbf" points="2446.81,-65.5 2446.81,-86.5 2505.81,-86.5 2505.81,-65.5 2446.81,-65.5"/>
<text text-anchor="middle" x="2476.31" y="-73.5" font-family="Helvetica,sans-Serif" font-size="10.00">functional</text>
</g>
<!-- Node18&#45;&gt;Node21 -->
<g id="edge48" class="edge"><title>Node18&#45;&gt;Node21</title>
<path fill="none" stroke="midnightblue" d="M2451.9,-130.937C2456.54,-120.494 2462.5,-107.079 2467.37,-96.1197"/>
<polygon fill="midnightblue" stroke="midnightblue" points="2470.61,-97.4607 2471.47,-86.901 2464.21,-94.6176 2470.61,-97.4607"/>
</g>
<!-- Node22 -->
<g id="node47" class="node"><title>Node22</title>
<polygon fill="white" stroke="#bfbfbf" points="2523.31,-65.5 2523.31,-86.5 2579.31,-86.5 2579.31,-65.5 2523.31,-65.5"/>
<text text-anchor="middle" x="2551.31" y="-73.5" font-family="Helvetica,sans-Serif" font-size="10.00">Rtypes.h</text>
</g>
<!-- Node18&#45;&gt;Node22 -->
<g id="edge50" class="edge"><title>Node18&#45;&gt;Node22</title>
<path fill="none" stroke="midnightblue" d="M2469.67,-130.937C2487.04,-119.251 2509.94,-103.843 2527.06,-92.3198"/>
<polygon fill="midnightblue" stroke="midnightblue" points="2529.09,-95.1746 2535.43,-86.688 2525.18,-89.367 2529.09,-95.1746"/>
</g>
<!-- Node24&#45;&gt;Node3 -->
<g id="edge100" class="edge"><title>Node24&#45;&gt;Node3</title>
<path fill="none" stroke="midnightblue" d="M1186.55,-147.046C1368.77,-142.94 2061.81,-125.533 2278.31,-94 2290.5,-92.2249 2303.62,-89.3128 2315.33,-86.3432"/>
<polygon fill="midnightblue" stroke="midnightblue" points="2316.42,-89.6759 2325.2,-83.7458 2314.64,-82.9064 2316.42,-89.6759"/>
</g>
<!-- Node24&#45;&gt;Node4 -->
<g id="edge86" class="edge"><title>Node24&#45;&gt;Node4</title>
<path fill="none" stroke="midnightblue" d="M1098.2,-146.302C946.036,-140.234 451.189,-118.669 428.315,-94 417.436,-82.2674 417.144,-69.455 428.315,-58 445.053,-40.8352 2024.2,-15.2997 2266.32,-11.484"/>
<polygon fill="midnightblue" stroke="midnightblue" points="2266.58,-14.9804 2276.52,-11.3236 2266.47,-7.98131 2266.58,-14.9804"/>
</g>
<!-- Node24&#45;&gt;Node5 -->
<g id="edge90" class="edge"><title>Node24&#45;&gt;Node5</title>
<path fill="none" stroke="midnightblue" d="M1186.46,-147.118C1421.82,-142.318 2520.93,-118.65 2588.31,-94 2589.55,-93.5493 2590.76,-93.0058 2591.96,-92.3929"/>
<polygon fill="midnightblue" stroke="midnightblue" points="2594.1,-95.1753 2600.48,-86.7237 2590.22,-89.3463 2594.1,-95.1753"/>
</g>
<!-- Node24&#45;&gt;Node8 -->
<g id="edge96" class="edge"><title>Node24&#45;&gt;Node8</title>
<path fill="none" stroke="midnightblue" d="M1098.07,-146.45C941.168,-140.74 419.38,-119.867 395.315,-94 384.416,-82.2855 384.298,-69.6031 395.315,-58 425.64,-26.0609 1094.78,-14.0521 1263.14,-11.5304"/>
<polygon fill="midnightblue" stroke="midnightblue" points="1263.32,-15.0282 1273.27,-11.3811 1263.22,-8.02896 1263.32,-15.0282"/>
</g>
<!-- Node24&#45;&gt;Node19 -->
<g id="edge88" class="edge"><title>Node24&#45;&gt;Node19</title>
<path fill="none" stroke="midnightblue" d="M1186.6,-147.006C1376.46,-142.58 2116.58,-123.561 2216.31,-94 2218.77,-93.2727 2221.23,-92.3145 2223.64,-91.2184"/>
<polygon fill="midnightblue" stroke="midnightblue" points="2225.33,-94.2853 2232.52,-86.5044 2222.05,-88.1027 2225.33,-94.2853"/>
</g>
<!-- Node25 -->
<g id="node55" class="node"><title>Node25</title>
<polygon fill="white" stroke="#bfbfbf" points="437.315,-65.5 437.315,-86.5 527.315,-86.5 527.315,-65.5 437.315,-65.5"/>
<text text-anchor="middle" x="482.315" y="-73.5" font-family="Helvetica,sans-Serif" font-size="10.00">detail/CmdLine.h</text>
</g>
<!-- Node24&#45;&gt;Node25 -->
<g id="edge60" class="edge"><title>Node24&#45;&gt;Node25</title>
<path fill="none" stroke="midnightblue" d="M1098.17,-145.405C977.498,-138.099 643.987,-116.422 536.315,-94 530.812,-92.8541 525.089,-91.329 519.516,-89.6496"/>
<polygon fill="midnightblue" stroke="midnightblue" points="520.315,-86.2304 509.724,-86.5088 518.177,-92.8959 520.315,-86.2304"/>
</g>
<!-- Node26 -->
<g id="node57" class="node"><title>Node26</title>
<polygon fill="white" stroke="#bfbfbf" points="544.815,-59 544.815,-93 665.815,-93 665.815,-59 544.815,-59"/>
<text text-anchor="start" x="552.815" y="-80" font-family="Helvetica,sans-Serif" font-size="10.00">base/detail/tclap/Switch</text>
<text text-anchor="middle" x="605.315" y="-67" font-family="Helvetica,sans-Serif" font-size="10.00">Arg.h</text>
</g>
<!-- Node24&#45;&gt;Node26 -->
<g id="edge62" class="edge"><title>Node24&#45;&gt;Node26</title>
<path fill="none" stroke="midnightblue" d="M1098.13,-144.979C1016.45,-138.947 836.258,-123.54 676.19,-94.2276"/>
<polygon fill="midnightblue" stroke="midnightblue" points="676.634,-90.7503 666.163,-92.3681 675.357,-97.6329 676.634,-90.7503"/>
</g>
<!-- Node27 -->
<g id="node59" class="node"><title>Node27</title>
<polygon fill="white" stroke="#bfbfbf" points="683.315,-59 683.315,-93 825.315,-93 825.315,-59 683.315,-59"/>
<text text-anchor="start" x="691.315" y="-80" font-family="Helvetica,sans-Serif" font-size="10.00">base/detail/tclap/MultiSwitch</text>
<text text-anchor="middle" x="754.315" y="-67" font-family="Helvetica,sans-Serif" font-size="10.00">Arg.h</text>
</g>
<!-- Node24&#45;&gt;Node27 -->
<g id="edge64" class="edge"><title>Node24&#45;&gt;Node27</title>
<path fill="none" stroke="midnightblue" d="M1098.07,-140.925C1040.07,-131.499 934.927,-113.897 835.309,-94.1533"/>
<polygon fill="midnightblue" stroke="midnightblue" points="835.868,-90.6961 825.377,-92.174 834.5,-97.5611 835.868,-90.6961"/>
</g>
<!-- Node28 -->
<g id="node61" class="node"><title>Node28</title>
<polygon fill="white" stroke="#bfbfbf" points="843.315,-59 843.315,-93 977.315,-93 977.315,-59 843.315,-59"/>
<text text-anchor="start" x="851.315" y="-80" font-family="Helvetica,sans-Serif" font-size="10.00">base/detail/tclap/Unlabeled</text>
<text text-anchor="middle" x="910.315" y="-67" font-family="Helvetica,sans-Serif" font-size="10.00">ValueArg.h</text>
</g>
<!-- Node24&#45;&gt;Node28 -->
<g id="edge66" class="edge"><title>Node24&#45;&gt;Node28</title>
<path fill="none" stroke="midnightblue" d="M1108.08,-137.376C1073.16,-126.539 1018.13,-109.459 974.971,-96.0657"/>
<polygon fill="midnightblue" stroke="midnightblue" points="975.985,-92.7157 965.397,-93.0944 973.91,-99.4012 975.985,-92.7157"/>
</g>
<!-- Node29 -->
<g id="node63" class="node"><title>Node29</title>
<polygon fill="white" stroke="#bfbfbf" points="995.315,-59 995.315,-93 1129.31,-93 1129.31,-59 995.315,-59"/>
<text text-anchor="start" x="1003.31" y="-80" font-family="Helvetica,sans-Serif" font-size="10.00">base/detail/tclap/Unlabeled</text>
<text text-anchor="middle" x="1062.31" y="-67" font-family="Helvetica,sans-Serif" font-size="10.00">MultiArg.h</text>
</g>
<!-- Node24&#45;&gt;Node29 -->
<g id="edge68" class="edge"><title>Node24&#45;&gt;Node29</title>
<path fill="none" stroke="midnightblue" d="M1130.51,-137.376C1119.58,-127.541 1102.94,-112.563 1088.83,-99.8665"/>
<polygon fill="midnightblue" stroke="midnightblue" points="1091.08,-97.1825 1081.31,-93.0944 1086.4,-102.386 1091.08,-97.1825"/>
</g>
<!-- Node30 -->
<g id="node65" class="node"><title>Node30</title>
<polygon fill="white" stroke="#bfbfbf" points="1147.31,-65.5 1147.31,-86.5 1295.31,-86.5 1295.31,-65.5 1147.31,-65.5"/>
<text text-anchor="middle" x="1221.31" y="-73.5" font-family="Helvetica,sans-Serif" font-size="10.00">base/detail/tclap/XorHandler.h</text>
</g>
<!-- Node24&#45;&gt;Node30 -->
<g id="edge70" class="edge"><title>Node24&#45;&gt;Node30</title>
<path fill="none" stroke="midnightblue" d="M1153.97,-137.376C1166.57,-125.89 1186.87,-107.393 1201.89,-93.7031"/>
<polygon fill="midnightblue" stroke="midnightblue" points="1204.58,-95.9903 1209.61,-86.6674 1199.86,-90.8167 1204.58,-95.9903"/>
</g>
<!-- Node31 -->
<g id="node67" class="node"><title>Node31</title>
<polygon fill="white" stroke="#bfbfbf" points="1312.81,-65.5 1312.81,-86.5 1459.81,-86.5 1459.81,-65.5 1312.81,-65.5"/>
<text text-anchor="middle" x="1386.31" y="-73.5" font-family="Helvetica,sans-Serif" font-size="10.00">base/detail/tclap/HelpVisitor.h</text>
</g>
<!-- Node24&#45;&gt;Node31 -->
<g id="edge72" class="edge"><title>Node24&#45;&gt;Node31</title>
<path fill="none" stroke="midnightblue" d="M1178.06,-137.453C1221.19,-124.727 1293.76,-103.311 1340.84,-89.4191"/>
<polygon fill="midnightblue" stroke="midnightblue" points="1341.88,-92.7619 1350.48,-86.5747 1339.9,-86.0481 1341.88,-92.7619"/>
</g>
<!-- Node32 -->
<g id="node69" class="node"><title>Node32</title>
<polygon fill="white" stroke="#bfbfbf" points="1477.31,-59 1477.31,-93 1601.31,-93 1601.31,-59 1477.31,-59"/>
<text text-anchor="start" x="1485.31" y="-80" font-family="Helvetica,sans-Serif" font-size="10.00">base/detail/tclap/Version</text>
<text text-anchor="middle" x="1539.31" y="-67" font-family="Helvetica,sans-Serif" font-size="10.00">Visitor.h</text>
</g>
<!-- Node24&#45;&gt;Node32 -->
<g id="edge74" class="edge"><title>Node24&#45;&gt;Node32</title>
<path fill="none" stroke="midnightblue" d="M1186.56,-141.877C1247.56,-133.171 1361.08,-116.018 1467.14,-94.1625"/>
<polygon fill="midnightblue" stroke="midnightblue" points="1467.97,-97.5646 1477.05,-92.1019 1466.54,-90.7112 1467.97,-97.5646"/>
</g>
<!-- Node33 -->
<g id="node71" class="node"><title>Node33</title>
<polygon fill="white" stroke="#bfbfbf" points="1619.31,-59 1619.31,-93 1737.31,-93 1737.31,-59 1619.31,-59"/>
<text text-anchor="start" x="1627.31" y="-80" font-family="Helvetica,sans-Serif" font-size="10.00">base/detail/tclap/Ignore</text>
<text text-anchor="middle" x="1678.31" y="-67" font-family="Helvetica,sans-Serif" font-size="10.00">RestVisitor.h</text>
</g>
<!-- Node24&#45;&gt;Node33 -->
<g id="edge76" class="edge"><title>Node24&#45;&gt;Node33</title>
<path fill="none" stroke="midnightblue" d="M1186.51,-145.031C1268.2,-139.083 1448.42,-123.811 1609.03,-94.0991"/>
<polygon fill="midnightblue" stroke="midnightblue" points="1609.91,-97.4957 1619.09,-92.2138 1608.62,-90.6155 1609.91,-97.4957"/>
</g>
<!-- Node34 -->
<g id="node73" class="node"><title>Node34</title>
<polygon fill="white" stroke="#bfbfbf" points="1755.31,-59 1755.31,-93 1885.31,-93 1885.31,-59 1755.31,-59"/>
<text text-anchor="start" x="1763.31" y="-80" font-family="Helvetica,sans-Serif" font-size="10.00">base/detail/tclap/CmdLine</text>
<text text-anchor="middle" x="1820.31" y="-67" font-family="Helvetica,sans-Serif" font-size="10.00">Output.h</text>
</g>
<!-- Node24&#45;&gt;Node34 -->
<g id="edge78" class="edge"><title>Node24&#45;&gt;Node34</title>
<path fill="none" stroke="midnightblue" d="M1186.56,-146.31C1285.21,-142.056 1530.75,-128.778 1744.88,-94.1019"/>
<polygon fill="midnightblue" stroke="midnightblue" points="1745.75,-97.5061 1755.05,-92.4345 1744.62,-90.5982 1745.75,-97.5061"/>
</g>
<!-- Node35 -->
<g id="node75" class="node"><title>Node35</title>
<polygon fill="white" stroke="#bfbfbf" points="1902.81,-65.5 1902.81,-86.5 2045.81,-86.5 2045.81,-65.5 1902.81,-65.5"/>
<text text-anchor="middle" x="1974.31" y="-73.5" font-family="Helvetica,sans-Serif" font-size="10.00">base/detail/tclap/StdOutput.h</text>
</g>
<!-- Node24&#45;&gt;Node35 -->
<g id="edge80" class="edge"><title>Node24&#45;&gt;Node35</title>
<path fill="none" stroke="midnightblue" d="M1186.64,-147.129C1303.18,-144.341 1627.57,-133.361 1894.31,-94 1903.72,-92.6119 1913.67,-90.7227 1923.23,-88.6884"/>
<polygon fill="midnightblue" stroke="midnightblue" points="1924,-92.1018 1933.01,-86.5308 1922.5,-85.2659 1924,-92.1018"/>
</g>
<!-- Node36 -->
<g id="node77" class="node"><title>Node36</title>
<polygon fill="white" stroke="#bfbfbf" points="2063.31,-65.5 2063.31,-86.5 2207.31,-86.5 2207.31,-65.5 2063.31,-65.5"/>
<text text-anchor="middle" x="2135.31" y="-73.5" font-family="Helvetica,sans-Serif" font-size="10.00">base/detail/tclap/Constraint.h</text>
</g>
<!-- Node24&#45;&gt;Node36 -->
<g id="edge82" class="edge"><title>Node24&#45;&gt;Node36</title>
<path fill="none" stroke="midnightblue" d="M1186.4,-146.324C1344.62,-140.163 1883.49,-117.883 2054.31,-94 2063.95,-92.6529 2074.14,-90.7637 2083.92,-88.7123"/>
<polygon fill="midnightblue" stroke="midnightblue" points="2084.9,-92.0813 2093.92,-86.5316 2083.41,-85.2419 2084.9,-92.0813"/>
</g>
<!-- Node37 -->
<g id="node79" class="node"><title>Node37</title>
<polygon fill="white" stroke="#bfbfbf" points="16.8147,-59 16.8147,-93 137.815,-93 137.815,-59 16.8147,-59"/>
<text text-anchor="start" x="24.8147" y="-80" font-family="Helvetica,sans-Serif" font-size="10.00">base/detail/tclap/Values</text>
<text text-anchor="middle" x="77.3147" y="-67" font-family="Helvetica,sans-Serif" font-size="10.00">Constraint.h</text>
</g>
<!-- Node24&#45;&gt;Node37 -->
<g id="edge84" class="edge"><title>Node24&#45;&gt;Node37</title>
<path fill="none" stroke="midnightblue" d="M1098.23,-146.789C933.514,-142.085 353.586,-123.865 148.206,-94.0902"/>
<polygon fill="midnightblue" stroke="midnightblue" points="148.538,-90.6008 138.128,-92.5723 147.495,-97.5227 148.538,-90.6008"/>
</g>
<!-- Node38 -->
<g id="node84" class="node"><title>Node38</title>
<polygon fill="white" stroke="#bfbfbf" points="155.315,-65.5 155.315,-86.5 209.315,-86.5 209.315,-65.5 155.315,-65.5"/>
<text text-anchor="middle" x="182.315" y="-73.5" font-family="Helvetica,sans-Serif" font-size="10.00">iostream</text>
</g>
<!-- Node24&#45;&gt;Node38 -->
<g id="edge92" class="edge"><title>Node24&#45;&gt;Node38</title>
<path fill="none" stroke="midnightblue" d="M1098.19,-147.769C937.967,-146.569 387.438,-139.174 218.315,-94 215.306,-93.1964 212.254,-92.1272 209.265,-90.9091"/>
<polygon fill="midnightblue" stroke="midnightblue" points="210.607,-87.6735 200.061,-86.6542 207.67,-94.0274 210.607,-87.6735"/>
</g>
<!-- Node39 -->
<g id="node86" class="node"><title>Node39</title>
<polygon fill="white" stroke="#bfbfbf" points="227.315,-65.5 227.315,-86.5 277.315,-86.5 277.315,-65.5 227.315,-65.5"/>
<text text-anchor="middle" x="252.315" y="-73.5" font-family="Helvetica,sans-Serif" font-size="10.00">iomanip</text>
</g>
<!-- Node24&#45;&gt;Node39 -->
<g id="edge94" class="edge"><title>Node24&#45;&gt;Node39</title>
<path fill="none" stroke="midnightblue" d="M1098.28,-147.663C945.829,-146.117 441.362,-137.738 286.315,-94 283.635,-93.2441 280.926,-92.257 278.269,-91.1342"/>
<polygon fill="midnightblue" stroke="midnightblue" points="279.541,-87.8608 269.016,-86.6428 276.484,-94.1582 279.541,-87.8608"/>
</g>
<!-- Node40 -->
<g id="node89" class="node"><title>Node40</title>
<polygon fill="white" stroke="#bfbfbf" points="295.315,-65.5 295.315,-86.5 343.315,-86.5 343.315,-65.5 295.315,-65.5"/>
<text text-anchor="middle" x="319.315" y="-73.5" font-family="Helvetica,sans-Serif" font-size="10.00">stdlib.h</text>
</g>
<!-- Node24&#45;&gt;Node40 -->
<g id="edge98" class="edge"><title>Node24&#45;&gt;Node40</title>
<path fill="none" stroke="midnightblue" d="M1098.29,-147.122C954.392,-143.918 499.068,-131.032 357.315,-94 354.066,-93.1513 350.757,-92.0263 347.516,-90.7519"/>
<polygon fill="midnightblue" stroke="midnightblue" points="348.681,-87.4404 338.119,-86.6068 345.856,-93.845 348.681,-87.4404"/>
</g>
<!-- Node42 -->
<g id="node95" class="node"><title>Node42</title>
<polygon fill="white" stroke="#bfbfbf" points="3382.81,-65.5 3382.81,-86.5 3429.81,-86.5 3429.81,-65.5 3382.81,-65.5"/>
<text text-anchor="middle" x="3406.31" y="-73.5" font-family="Helvetica,sans-Serif" font-size="10.00">iterator</text>
</g>
<!-- Node41&#45;&gt;Node42 -->
<g id="edge106" class="edge"><title>Node41&#45;&gt;Node42</title>
<path fill="none" stroke="midnightblue" d="M3320.22,-137.376C3336.78,-125.571 3363.73,-106.36 3383.07,-92.5736"/>
<polygon fill="midnightblue" stroke="midnightblue" points="3385.24,-95.3222 3391.35,-86.6674 3381.18,-89.6223 3385.24,-95.3222"/>
</g>
</g>
</svg>
